<?xml version="1.0" encoding="UTF-8" standalone="no"?>
<!DOCTYPE svg PUBLIC "-//W3C//DTD SVG 1.1//EN" "http://www.w3.org/Graphics/SVG/1.1/DTD/svg11.dtd">
<svg xmlns="http://www.w3.org/2000/svg" version="1.1" viewBox="0 0 1154 760">
<g stroke-width="2.00" fill="none" stroke-linecap="butt">
<path stroke="#2b2623" stroke-opacity="0.996" vector-effect="non-scaling-stroke" d="
  M 667.00 374.51
  Q 666.14 381.29 666.47 388.11
  Q 666.64 391.43 668.05 395.15
  Q 670.64 401.99 672.93 408.93
  C 673.98 412.11 675.57 416.45 677.17 419.36
  C 678.36 421.52 678.51 423.92 679.50 426.07
  Q 680.24 427.66 680.76 429.34
  Q 680.81 429.50 680.98 429.50
  Q 681.13 429.50 681.29 429.50
  Q 681.50 429.50 681.56 429.70
  L 683.24 435.04
  Q 683.37 435.45 683.65 435.78
  Q 684.82 437.24 685.28 438.98
  Q 685.39 439.39 685.63 439.75
  L 686.50 441.00"
/>
<path stroke="#2b2623" stroke-opacity="0.996" vector-effect="non-scaling-stroke" d="
  M 686.50 441.00
  Q 687.98 446.37 690.64 451.30
  Q 691.49 452.89 690.95 451.24
  Q 690.75 450.63 690.22 450.16
  Q 689.82 449.80 690.36 449.79
  L 690.73 449.79
  Q 690.82 449.79 690.78 449.71
  L 686.50 441.00"
/>
<path stroke="#2b2623" stroke-opacity="0.996" vector-effect="non-scaling-stroke" d="
  M 686.50 441.00
  L 684.83 435.06
  Q 684.59 434.21 685.07 434.95
  Q 686.48 437.12 686.72 439.73
  Q 686.78 440.27 687.12 440.70
  C 689.03 443.08 687.98 445.20 690.95 447.18
  Q 691.38 447.47 691.39 447.98
  Q 691.40 448.72 691.90 449.05
  Q 692.22 449.25 692.36 449.61
  Q 693.05 451.38 694.96 451.00"
/>
<path stroke="#2b2623" stroke-opacity="0.996" vector-effect="non-scaling-stroke" d="
  M 703.29 470.50
  C 703.49 472.63 702.59 476.20 704.54 477.50
  Q 704.93 477.77 704.99 478.24
  Q 705.20 479.88 706.65 480.36
  Q 707.08 480.50 707.40 480.82
  Q 708.46 481.90 708.50 483.35
  Q 708.52 483.88 708.87 484.29
  C 711.60 487.37 709.80 489.43 710.75 492.45
  Q 711.87 496.00 714.23 498.91
  Q 714.55 499.30 714.49 499.81
  Q 714.42 500.52 714.80 500.93
  C 717.49 503.86 719.07 507.27 720.56 510.74
  C 721.58 513.13 723.53 514.61 724.44 517.35
  Q 724.59 517.81 724.97 518.13
  Q 729.11 521.60 731.28 528.22
  Q 732.03 530.52 735.25 531.96"
/>
<path stroke="#2b2623" stroke-opacity="0.996" vector-effect="non-scaling-stroke" d="
  M 743.75 627.21
  Q 744.39 625.69 743.33 624.41
  Q 742.91 623.90 742.29 624.13
  L 732.05 627.77
  Q 731.57 627.94 731.06 627.91
  L 726.10 627.68
  Q 725.61 627.65 725.35 627.25
  Q 723.34 624.20 719.75 623.79"
/>
<path stroke="#2b2623" stroke-opacity="0.996" vector-effect="non-scaling-stroke" d="
  M 685.50 556.29
  Q 687.43 554.14 685.94 552.02
  C 683.28 548.22 681.40 544.21 678.74 541.97
  Q 678.31 541.61 677.76 541.55
  Q 675.98 541.37 675.02 539.81
  Q 674.73 539.33 674.18 539.26
  Q 673.44 539.17 672.96 539.75"
/>
<path stroke="#2b2623" stroke-opacity="0.996" vector-effect="non-scaling-stroke" d="
  M 460.46 502.50
  C 461.71 497.48 458.10 493.19 454.22 490.60
  Q 453.78 490.31 453.56 490.79
  Q 453.45 491.04 453.66 491.31
  Q 454.07 491.85 454.10 491.86
  Q 455.87 492.37 456.21 494.50"
/>
<path stroke="#2b2623" stroke-opacity="0.996" vector-effect="non-scaling-stroke" d="
  M 456.21 494.50
  L 451.79 491.50"
/>
<path stroke="#1b1916" vector-effect="non-scaling-stroke" d="
  M 457.21 498.25
  Q 457.71 497.91 457.94 497.48
  Q 458.18 497.02 457.86 496.61
  L 456.21 494.50"
/>
<path stroke="#242120" stroke-opacity="0.996" vector-effect="non-scaling-stroke" d="
  M 474.29 528.75
  Q 477.41 542.24 479.00 556.00
  Q 479.33 558.81 481.16 562.36
  Q 481.39 562.81 481.34 563.32
  Q 480.64 570.55 482.95 577.36
  C 483.36 578.58 483.21 579.75 483.64 581.05
  Q 483.80 581.52 483.71 582.00
  Q 482.21 590.09 481.58 598.30
  Q 481.30 601.99 480.21 603.96
  C 477.17 609.42 473.90 616.24 478.58 621.58
  Q 480.73 624.04 480.79 624.12
  C 482.44 626.23 483.96 627.95 485.64 630.39
  C 487.37 632.90 495.19 633.72 498.52 632.18
  C 502.35 630.40 505.65 632.61 509.68 631.57
  C 515.30 630.13 520.89 629.18 526.49 627.65
  C 527.65 627.33 528.53 626.57 529.69 626.10
  Q 530.18 625.91 530.54 625.51
  L 539.91 615.28
  Q 540.26 614.90 540.74 614.71
  L 552.70 609.92
  Q 553.22 609.70 553.15 609.14
  Q 551.79 599.18 549.47 585.75
  C 548.65 581.05 546.87 576.25 545.97 572.39
  Q 543.97 563.90 540.77 552.74
  C 540.07 550.30 538.70 548.25 538.29 546.07
  C 537.01 539.26 532.83 520.01 542.01 516.54
  Q 545.81 515.10 549.87 514.49
  Q 550.38 514.42 550.85 514.63
  C 554.45 516.25 559.06 517.62 562.22 514.38
  Q 562.57 514.02 563.05 513.91
  L 574.52 511.17
  Q 575.05 511.04 575.34 510.58
  C 577.01 507.93 579.68 507.79 582.24 507.18
  C 584.32 506.68 586.67 507.96 588.41 506.72
  Q 588.52 506.64 588.39 506.60
  L 588.09 506.50
  Q 587.71 506.37 588.01 506.10
  Q 591.64 502.70 596.20 500.72
  Q 596.63 500.53 596.94 500.17
  Q 598.88 497.88 601.97 498.30
  A 2.01 2.00 28.9 0 0 603.53 497.85
  Q 610.82 491.75 617.00 484.57
  C 619.20 482.02 619.54 478.87 621.89 476.12
  Q 622.24 475.71 622.78 475.70
  Q 625.76 475.60 627.44 478.15
  Q 627.74 478.61 628.23 478.85
  Q 629.91 479.71 630.49 481.54
  Q 630.65 482.07 631.06 482.43
  C 634.23 485.27 635.23 487.75 639.75 490.27
  C 641.28 491.13 642.84 493.63 643.48 495.64
  C 644.31 498.22 645.65 499.56 645.90 502.97
  Q 645.93 503.43 646.38 503.59
  Q 647.43 503.95 647.77 504.90
  Q 647.96 505.42 648.38 505.77
  Q 652.41 509.21 655.53 513.46
  Q 656.64 514.96 658.59 516.39
  C 662.18 519.04 663.55 522.67 667.97 524.61"
/>
<path stroke="#2b2623" stroke-opacity="0.996" vector-effect="non-scaling-stroke" d="
  M 667.97 524.61
  Q 673.15 533.08 680.53 539.61
  C 682.90 541.71 683.74 544.26 685.72 546.69
  C 687.30 548.64 692.29 555.03 692.57 557.12
  Q 692.63 557.59 692.95 557.94
  Q 695.29 560.55 697.97 562.75
  C 700.41 564.76 703.93 571.36 704.11 574.50
  Q 704.14 575.01 704.50 575.37
  C 705.72 576.58 706.23 578.04 707.48 579.15
  C 711.57 582.77 712.14 585.88 714.46 589.54
  C 716.92 593.43 718.01 597.95 719.20 602.36
  C 719.69 604.15 718.88 606.17 720.63 607.81
  Q 721.03 608.19 721.10 608.73
  L 721.31 610.49
  Q 721.36 610.97 721.67 611.34
  Q 723.17 613.14 724.57 615.03
  C 727.26 618.67 731.60 618.66 735.73 617.75
  C 742.24 616.31 747.45 618.42 752.80 623.17
  C 758.29 628.04 767.29 624.83 773.52 623.63
  Q 774.01 623.54 774.34 623.16
  C 776.20 621.08 778.60 620.90 780.44 619.28
  Q 782.49 617.48 784.37 615.48
  Q 784.71 615.11 784.71 614.60
  C 784.72 612.14 786.05 610.11 786.22 607.98
  C 786.74 601.34 787.01 589.70 782.78 586.04
  C 780.26 583.87 775.70 583.08 772.54 581.50
  C 768.10 579.27 760.74 579.08 757.60 575.55
  Q 754.68 572.27 751.83 568.92
  C 749.45 566.12 748.97 562.30 746.48 559.13
  Q 737.85 548.15 731.79 535.58
  C 730.40 532.70 728.01 530.39 726.49 527.00
  Q 724.96 523.59 721.62 519.39
  C 720.87 518.45 720.68 517.26 720.01 516.22
  C 716.51 510.78 712.81 504.86 710.42 498.83
  C 709.07 495.44 706.39 492.20 703.83 487.19
  C 702.96 485.47 702.97 483.81 701.95 482.20
  C 699.86 478.92 698.37 474.61 697.03 471.90
  Q 694.17 466.06 691.47 460.15
  Q 690.81 458.69 689.03 456.69
  C 686.77 454.13 685.94 450.22 684.78 447.96
  C 681.46 441.53 678.26 432.66 676.32 428.14
  Q 672.56 419.36 668.70 410.63
  C 665.69 403.83 664.70 395.96 662.16 388.78
  C 660.52 384.15 661.26 378.02 661.08 373.08
  C 660.75 364.19 665.39 356.44 669.99 349.85
  Q 670.31 349.40 670.84 349.22
  L 673.67 348.23
  Q 674.21 348.04 674.37 347.49
  Q 676.26 340.92 679.08 334.71
  C 681.26 329.89 681.82 324.60 683.89 319.63
  C 684.78 317.48 684.96 315.33 685.76 313.10
  C 688.14 306.45 689.61 295.31 687.76 289.25
  Q 685.61 282.17 685.73 277.99
  C 685.82 274.98 685.03 272.52 685.09 270.01
  C 685.28 262.30 682.66 252.82 681.42 245.06
  Q 681.20 243.65 679.73 239.66
  C 677.00 232.28 679.18 224.66 679.72 217.70
  Q 681.04 200.62 681.49 183.43
  A 1.59 1.59 0.0 0 0 679.80 181.80
  C 676.06 182.02 675.55 184.72 672.95 186.61
  Q 667.65 190.47 665.12 197.03
  C 664.00 199.94 662.13 202.63 661.34 205.84
  Q 660.80 208.07 656.28 211.77
  C 654.26 213.42 653.70 219.51 650.31 221.33
  Q 646.96 223.13 645.03 225.28
  C 640.99 229.80 637.27 232.10 631.00 232.43
  Q 618.64 233.10 605.40 232.04
  C 601.93 231.76 599.18 232.60 596.00 233.56
  C 592.15 234.71 585.33 233.71 581.74 231.99
  C 577.78 230.09 571.89 228.08 569.16 224.61
  Q 565.83 220.36 563.31 215.60
  C 560.60 210.46 557.09 205.79 554.79 200.30
  C 553.75 197.83 552.26 195.92 552.33 192.61
  Q 552.34 192.16 552.12 191.76
  L 550.76 189.29
  Q 550.25 188.38 550.98 189.13
  Q 553.23 191.46 553.29 193.00
  C 553.49 198.68 558.96 206.86 561.66 211.15
  C 564.21 215.20 567.82 223.30 572.98 225.67
  C 575.78 226.95 577.44 227.90 579.75 228.98
  C 582.72 230.37 585.96 230.04 589.20 230.89
  C 594.40 232.26 598.37 231.40 603.43 229.89
  C 607.85 228.57 611.46 230.55 615.30 230.75
  Q 621.98 231.10 626.56 230.57
  C 630.61 230.10 637.71 230.97 640.49 227.48
  Q 644.77 222.13 650.60 218.54
  Q 651.03 218.28 651.27 217.83
  C 652.84 214.79 653.84 212.38 656.42 209.85
  Q 659.56 206.77 660.22 204.50
  Q 661.60 199.73 666.23 192.48
  C 669.42 187.49 674.42 179.61 680.62 179.14
  Q 681.45 179.07 680.98 178.39
  L 680.33 177.42
  Q 680.02 176.96 679.47 177.10
  C 674.05 178.47 670.65 182.19 667.82 187.02
  C 664.80 192.19 661.27 196.92 658.94 202.48
  C 657.41 206.12 654.92 208.62 652.48 211.61
  C 650.66 213.85 650.44 216.76 647.42 218.53
  Q 646.06 219.33 644.76 221.22
  C 641.78 225.56 637.38 229.04 631.85 229.24
  Q 624.42 229.51 617.00 230.11
  C 614.24 230.32 610.04 227.77 606.38 228.05
  C 600.74 228.48 596.51 232.36 590.77 230.25
  C 587.19 228.94 583.70 229.43 580.35 227.92
  C 579.44 227.50 576.33 226.47 575.87 225.79
  Q 575.59 225.38 575.10 225.30
  Q 571.81 224.79 570.15 221.93
  Q 569.88 221.47 569.39 221.27
  C 567.82 220.63 567.38 218.39 565.90 217.22
  Q 565.50 216.91 565.29 216.46
  C 562.46 210.36 557.94 205.29 556.76 198.59
  C 556.28 195.91 554.55 193.86 553.66 191.35
  Q 552.30 187.55 549.07 185.12
  Q 548.69 184.84 548.60 184.37
  Q 548.18 182.05 547.16 179.92
  C 546.42 178.37 543.40 176.31 543.21 175.00
  C 542.48 169.73 539.14 170.54 535.58 168.67
  C 533.23 167.44 527.80 164.98 525.64 167.11
  Q 523.33 169.37 520.60 171.20
  Q 520.19 171.48 520.07 171.97
  Q 517.16 184.13 514.80 196.40
  Q 513.95 200.81 513.56 207.70
  C 513.16 214.68 511.43 221.77 511.52 228.54
  C 511.63 235.70 511.92 241.40 511.84 249.92
  Q 511.78 257.54 512.87 265.13
  C 513.14 266.99 512.71 268.76 512.90 270.67
  C 513.29 274.48 512.90 276.08 511.18 279.22
  Q 510.93 279.67 511.02 280.16
  C 511.45 282.85 512.24 285.33 512.21 288.04
  Q 512.08 298.77 511.96 309.51
  Q 511.94 310.46 511.39 312.39
  C 510.75 314.58 511.75 317.02 511.82 318.57
  C 512.02 322.78 510.89 334.76 504.01 332.46
  Q 503.51 332.29 503.22 331.85
  L 500.99 328.52
  Q 500.75 328.17 500.79 327.76
  Q 501.10 324.23 498.96 320.06
  C 497.22 316.66 497.49 310.72 497.14 307.96
  C 496.32 301.50 495.99 294.35 493.66 288.20
  C 490.33 279.40 489.40 270.48 487.63 261.32
  C 487.22 259.19 488.19 256.40 486.45 254.30
  Q 482.36 249.38 479.84 245.33
  C 478.13 242.57 477.37 239.19 476.30 236.02
  C 475.71 234.27 474.25 233.10 474.18 230.81
  Q 474.16 230.31 473.89 229.88
  C 472.17 227.20 470.38 224.79 469.05 221.89
  C 466.99 217.41 464.98 212.30 462.18 208.26
  C 456.79 200.51 452.96 190.75 448.40 182.36
  C 445.48 177.00 442.18 170.13 441.10 163.86
  C 440.65 161.21 439.38 159.07 438.96 156.39
  Q 438.30 152.09 437.98 150.71
  C 437.25 147.53 437.58 144.39 436.60 141.32
  C 435.65 138.36 435.25 134.87 434.41 132.36
  Q 432.14 125.48 429.76 118.65
  Q 429.60 118.19 429.17 117.96
  C 422.11 114.14 424.66 100.77 414.09 102.66
  Q 413.59 102.75 413.37 103.22
  C 412.06 106.10 416.01 117.39 416.91 120.95
  C 417.69 124.08 416.90 126.92 417.79 130.20
  Q 419.43 136.20 419.06 142.43
  C 418.83 146.19 420.43 149.94 420.92 153.65
  C 422.21 163.58 424.36 173.25 425.78 183.15
  C 426.01 184.75 425.76 187.04 426.75 188.98
  Q 426.97 189.42 426.96 189.91
  C 426.66 201.20 430.09 209.43 432.22 220.09
  Q 434.57 231.89 437.78 243.48
  C 439.33 249.09 441.50 258.74 444.44 266.20
  C 444.98 267.57 444.85 269.29 445.24 270.71
  Q 449.19 285.02 452.56 299.49
  C 453.19 302.22 454.22 304.39 454.15 307.25
  Q 453.94 315.21 455.43 323.01
  C 455.92 325.59 454.99 327.62 455.28 330.00
  Q 455.89 334.99 453.74 338.74
  C 452.08 341.66 450.33 345.94 449.05 349.88
  Q 448.16 352.60 446.08 354.67
  Q 445.74 355.02 445.57 355.48
  Q 444.45 358.49 441.24 362.01
  C 440.01 363.35 439.08 365.36 437.32 366.76
  Q 431.12 371.66 429.75 373.74
  C 426.91 378.03 424.21 382.23 420.07 385.44
  Q 415.12 389.29 413.98 395.67
  Q 413.90 396.16 413.57 396.53
  C 412.74 397.49 411.88 398.00 411.24 399.09
  Q 407.86 404.89 405.58 411.18
  Q 405.49 411.41 405.26 411.49
  C 404.99 411.59 404.78 411.78 404.68 412.07
  C 403.34 416.11 400.36 417.96 398.79 421.37
  Q 394.77 430.15 392.32 439.49
  C 391.87 441.21 390.00 444.92 389.12 446.36
  Q 385.01 453.09 383.43 461.48
  Q 382.85 464.55 381.15 468.08
  Q 380.94 468.52 380.92 469.01
  C 380.81 472.00 378.33 474.23 377.34 477.72
  Q 377.27 477.98 377.45 477.78
  L 378.83 476.21
  Q 379.17 475.82 379.16 475.31
  Q 379.15 473.86 380.40 472.75
  A 0.66 0.66 0.0 0 1 381.44 473.51
  Q 378.02 481.19 374.41 486.91
  Q 373.10 489.00 372.86 490.45
  Q 372.79 490.92 372.48 491.28
  C 370.43 493.66 370.26 496.46 368.79 498.80
  C 363.12 507.87 360.50 517.50 358.33 528.28
  Q 357.82 530.82 356.27 534.86
  C 354.29 540.07 354.31 545.26 353.53 550.31
  Q 353.06 553.34 352.72 556.42
  C 352.36 559.70 350.10 562.14 348.81 565.14
  C 347.61 567.95 345.86 570.35 344.81 573.37
  C 342.32 580.48 338.37 586.59 336.12 593.94
  C 334.94 597.81 337.08 601.63 338.91 605.24
  C 344.12 615.53 352.14 620.09 364.23 618.20
  Q 366.03 617.92 366.82 616.89
  Q 367.12 616.50 367.55 616.25
  C 371.78 613.78 376.67 611.29 379.37 607.10
  C 385.97 596.86 388.67 580.17 388.61 567.25
  Q 388.57 557.03 392.55 546.60
  C 394.93 540.35 394.04 535.96 400.04 531.43
  Q 401.91 530.03 402.81 528.51
  Q 406.95 521.50 411.06 514.48
  C 413.35 510.58 416.28 507.17 418.94 503.42
  C 420.74 500.88 423.26 499.13 425.36 496.75
  C 428.89 492.75 434.67 486.20 438.50 485.09
  C 440.82 484.42 441.94 483.74 443.78 482.66
  C 447.61 480.42 455.99 481.88 460.03 483.18
  C 461.31 483.59 462.13 484.65 463.30 485.38
  Q 463.74 485.66 463.86 486.17
  C 465.06 491.37 469.64 496.14 469.38 501.38
  Q 469.05 507.93 470.65 514.31
  C 471.09 516.06 471.13 518.17 471.91 520.11
  C 473.19 523.30 473.42 525.77 474.29 528.75"
/>
<path stroke="#151413" vector-effect="non-scaling-stroke" d="
  M 667.97 524.61
  Q 673.74 531.28 680.04 537.47
  Q 682.04 539.44 683.94 542.47
  Q 687.90 548.78 693.77 553.45
  Q 694.19 553.78 694.26 554.56
  Q 694.30 555.05 694.70 555.33
  C 701.24 559.86 703.98 566.43 705.58 574.15
  Q 705.69 574.69 706.24 574.78
  C 710.25 575.42 711.59 571.34 714.99 570.02
  Q 715.49 569.83 715.49 569.29
  L 715.51 565.81
  A 0.71 0.71 0.0 0 1 716.78 565.37
  C 718.84 567.97 717.27 569.00 716.25 571.23
  C 714.45 575.17 715.19 583.30 715.84 587.43
  Q 715.93 587.94 716.27 588.33
  Q 718.10 590.43 717.76 593.13
  Q 717.70 593.61 717.98 594.01
  Q 719.16 595.72 719.45 599.05
  Q 719.62 601.01 722.03 607.75
  Q 722.19 608.19 722.62 608.39
  C 724.17 609.12 724.64 612.64 727.59 613.92
  C 730.51 615.20 734.15 613.07 736.81 611.71
  Q 737.24 611.49 737.73 611.57
  C 743.02 612.43 747.82 615.43 752.21 618.34
  C 758.28 622.37 761.83 620.14 768.24 619.82
  Q 775.02 619.48 780.98 615.93
  Q 781.43 615.66 781.46 615.14
  C 781.73 610.45 780.60 606.43 782.73 601.24
  C 783.22 600.05 781.36 597.62 780.86 596.26
  Q 780.69 595.80 780.32 595.47
  C 777.49 592.99 776.80 589.35 772.18 588.63
  Q 771.70 588.56 771.31 588.27
  Q 766.40 584.68 759.46 584.11
  Q 754.21 583.69 751.25 579.17
  C 749.96 577.21 748.34 576.19 746.74 574.67
  C 744.28 572.32 743.58 569.27 742.62 566.12
  C 741.56 562.62 739.26 559.81 738.05 556.25
  Q 736.96 553.06 735.74 551.07
  C 733.30 547.06 732.46 543.26 729.99 540.40
  Q 729.67 540.03 729.54 539.55
  C 727.94 533.59 722.32 531.58 721.53 526.21
  Q 721.45 525.71 721.09 525.35
  C 717.86 522.24 718.16 518.52 715.18 515.42
  Q 713.63 513.81 712.89 512.20
  Q 710.32 506.61 708.65 500.65
  Q 708.51 500.16 708.07 499.90
  Q 705.23 498.18 704.37 495.17
  C 703.37 491.66 702.08 488.27 701.21 484.72
  C 700.72 482.70 699.53 481.98 697.56 481.99
  Q 697.02 481.99 696.79 481.49
  C 695.81 479.30 696.47 476.87 695.91 474.85
  Q 693.67 466.76 687.94 459.27
  Q 686.39 457.23 686.14 453.83
  Q 686.10 453.31 685.67 453.02
  C 679.85 449.03 680.17 444.66 677.97 439.07
  C 676.30 434.81 675.37 432.24 673.37 426.31
  C 671.98 422.14 669.47 418.03 668.09 414.47
  C 666.54 410.45 665.27 407.08 664.09 402.47
  C 662.89 397.75 658.53 395.41 656.81 390.60
  C 655.91 388.11 654.25 386.22 654.01 383.62
  C 653.69 379.98 652.67 367.91 654.81 364.55
  Q 657.18 360.84 662.21 358.50
  Q 662.67 358.29 662.88 357.83
  Q 665.06 352.90 668.80 349.11
  C 670.33 347.56 671.08 345.37 673.33 344.07
  Q 673.75 343.82 673.97 343.38
  Q 677.72 335.82 679.40 327.50
  C 680.37 322.69 678.76 319.38 681.93 314.62
  Q 682.22 314.18 682.22 313.65
  Q 682.20 309.24 681.97 296.00
  C 681.91 292.81 679.20 292.43 677.11 294.15
  Q 676.74 294.45 676.61 294.92
  C 675.65 298.57 672.37 298.68 673.11 303.84
  Q 673.18 304.33 672.93 304.75
  Q 672.19 305.98 672.34 307.35
  Q 672.40 307.87 672.23 308.37
  L 671.65 310.08
  Q 671.45 310.68 670.83 310.53
  L 668.65 309.98
  Q 668.17 309.86 667.74 310.12
  C 663.30 312.81 664.57 315.76 662.77 319.28
  Q 660.38 323.91 656.07 326.97
  Q 655.67 327.26 655.56 327.74
  Q 654.84 331.16 651.72 331.71
  C 648.29 332.30 644.91 333.28 641.44 333.88
  Q 640.92 333.97 640.60 334.40
  C 637.88 338.04 640.37 340.68 643.69 342.15
  Q 644.24 342.39 643.92 342.90
  Q 643.50 343.59 642.65 343.46
  Q 642.21 343.38 641.84 343.63
  Q 637.85 346.28 636.68 348.95
  C 634.87 353.10 631.16 353.97 627.88 356.27
  Q 627.44 356.57 626.96 356.36
  Q 619.78 353.34 612.03 352.65
  Q 611.45 352.60 611.16 352.10
  L 610.35 350.71
  Q 610.09 350.27 610.35 349.83
  C 611.19 348.39 611.34 346.82 611.94 345.53
  Q 614.29 340.47 619.33 337.90
  Q 619.82 337.66 619.96 337.13
  Q 621.87 330.02 620.09 322.93
  Q 619.97 322.45 619.49 322.37
  L 616.48 321.88
  Q 615.94 321.79 615.49 322.10
  L 611.01 325.14
  Q 610.57 325.43 610.06 325.59
  Q 604.64 327.24 601.06 331.64
  C 599.39 333.69 598.04 334.26 595.65 334.75
  Q 595.08 334.86 594.68 335.28
  L 590.34 339.75
  Q 590.18 339.92 590.11 339.70
  Q 590.07 339.56 590.00 339.47
  Q 589.94 339.41 589.90 339.48
  L 589.45 340.32
  Q 589.38 340.46 589.25 340.37
  Q 589.15 340.29 589.07 340.17
  Q 588.04 338.45 588.49 340.50
  Q 588.59 340.93 588.30 340.99
  Q 588.09 341.04 588.08 340.83
  Q 588.07 340.57 587.91 340.39
  Q 587.63 340.07 587.63 340.50
  L 587.62 341.08
  Q 587.62 341.64 587.29 341.19
  L 586.91 340.67
  Q 586.74 340.44 586.75 340.73
  Q 586.75 340.89 586.75 341.06
  Q 586.76 341.16 586.66 341.18
  L 579.36 342.61
  Q 579.07 342.66 578.98 342.38
  Q 578.94 342.26 578.75 342.25
  Q 578.56 342.24 578.61 342.42
  L 578.74 342.95
  Q 578.82 343.25 578.54 343.12
  Q 577.59 342.67 577.42 343.78
  Q 577.35 344.31 577.22 343.79
  L 576.53 340.86
  Q 576.49 340.67 576.31 340.73
  Q 576.11 340.80 575.92 340.86
  Q 575.77 340.91 575.63 340.82
  Q 574.64 340.11 573.66 340.86
  Q 573.27 341.16 572.79 341.29
  C 569.19 342.28 567.12 345.43 564.68 348.00
  C 563.28 349.48 562.98 351.17 561.60 352.83
  Q 561.28 353.22 560.78 353.10
  Q 557.20 352.26 554.23 350.00
  Q 553.80 349.67 553.25 349.66
  C 551.33 349.64 549.41 349.03 547.65 349.09
  Q 537.76 349.43 527.98 350.89
  C 526.62 351.09 524.54 350.63 523.04 351.50
  Q 522.48 351.83 522.89 352.32
  Q 523.36 352.88 523.20 353.40
  Q 523.16 353.53 523.28 353.61
  L 524.35 354.33
  Q 525.27 354.95 524.71 355.90
  L 521.35 361.69
  Q 521.15 362.04 520.80 362.22
  C 516.45 364.43 515.63 368.64 510.08 370.36
  Q 509.58 370.52 509.31 370.96
  C 507.06 374.65 504.23 378.69 504.17 383.01
  Q 504.12 386.39 505.14 389.67
  C 505.97 392.30 505.49 394.81 506.41 397.48
  C 507.35 400.22 510.20 402.27 512.19 404.60
  Q 512.53 404.99 512.56 405.50
  Q 512.90 410.00 515.51 413.56
  Q 517.01 415.60 517.00 416.94
  C 516.96 420.40 513.98 424.28 510.26 424.65
  Q 509.73 424.71 509.31 424.38
  Q 507.73 423.17 507.30 421.30
  Q 507.14 420.60 506.49 420.90
  Q 503.67 422.18 503.96 425.12
  Q 504.01 425.66 503.50 425.80
  Q 500.03 426.80 499.02 430.50
  Q 496.66 439.16 495.36 446.59
  C 495.03 448.47 493.91 450.86 494.32 453.56
  Q 494.39 454.06 494.13 454.49
  C 491.85 458.27 491.47 462.61 490.28 466.34
  Q 489.43 468.99 488.97 471.74
  C 488.59 474.08 487.29 476.06 486.83 478.44
  C 486.06 482.33 485.18 487.90 483.30 490.95
  Q 481.85 493.29 480.35 495.60
  Q 480.31 495.67 480.28 495.59
  Q 480.25 495.47 480.17 495.36
  Q 480.14 495.32 480.11 495.35
  Q 477.54 497.51 477.03 500.79
  Q 471.16 538.34 477.19 500.93
  Q 477.26 500.55 477.56 500.32
  Q 477.93 500.05 477.80 500.49
  C 476.26 505.86 476.61 511.02 475.18 516.19
  Q 474.31 519.34 473.57 522.51
  C 473.05 524.74 474.98 526.13 474.29 528.75"
/>
<path stroke="#2b2623" stroke-opacity="0.996" vector-effect="non-scaling-stroke" d="
  M 545.97 249.37
  Q 544.22 245.15 543.69 240.59
  Q 543.44 238.44 542.43 236.75
  C 539.77 232.33 537.39 224.53 530.71 224.66
  Q 530.07 224.67 529.93 225.30
  Q 528.77 230.47 529.47 235.71
  Q 529.55 236.25 529.92 236.64
  Q 533.31 240.14 535.60 244.45
  C 536.82 246.75 537.14 249.07 539.65 250.84
  Q 541.79 252.34 544.07 253.67
  A 1.40 1.39 -67.2 0 0 546.12 252.83
  Q 546.62 250.96 545.97 249.37"
/>
<path stroke="#858c8a" vector-effect="non-scaling-stroke" d="
  M 574.81 280.65
  C 575.91 288.36 577.69 297.83 587.74 297.76
  C 603.17 297.66 601.01 282.34 598.74 272.49
  C 597.45 266.88 595.51 264.67 590.01 263.54
  Q 579.77 261.44 575.36 268.95
  C 573.44 272.22 574.29 276.98 574.81 280.65"
/>
<path stroke="#858c8a" vector-effect="non-scaling-stroke" d="
  M 643.37 291.25
  C 645.80 304.95 664.60 308.06 664.55 291.43
  C 664.51 281.58 663.14 273.05 653.42 269.67
  C 646.74 267.35 642.04 273.75 642.20 279.75
  Q 642.36 285.57 643.37 291.25"
/>
</g>
<path fill="#3b3331" fill-opacity="0.992" d="
  M 667.00 374.51
  Q 666.14 381.29 666.47 388.11
  Q 666.64 391.43 668.05 395.15
  Q 670.64 401.99 672.93 408.93
  C 673.98 412.11 675.57 416.45 677.17 419.36
  C 678.36 421.52 678.51 423.92 679.50 426.07
  Q 680.24 427.66 680.76 429.34
  Q 680.81 429.50 680.98 429.50
  Q 681.13 429.50 681.29 429.50
  Q 681.50 429.50 681.56 429.70
  L 683.24 435.04
  Q 683.37 435.45 683.65 435.78
  Q 684.82 437.24 685.28 438.98
  Q 685.39 439.39 685.63 439.75
  L 686.50 441.00
  Q 687.98 446.37 690.64 451.30
  Q 691.49 452.89 690.95 451.24
  Q 690.75 450.63 690.22 450.16
  Q 689.82 449.80 690.36 449.79
  L 690.73 449.79
  Q 690.82 449.79 690.78 449.71
  L 686.50 441.00
  L 684.83 435.06
  Q 684.59 434.21 685.07 434.95
  Q 686.48 437.12 686.72 439.73
  Q 686.78 440.27 687.12 440.70
  C 689.03 443.08 687.98 445.20 690.95 447.18
  Q 691.38 447.47 691.39 447.98
  Q 691.40 448.72 691.90 449.05
  Q 692.22 449.25 692.36 449.61
  Q 693.05 451.38 694.96 451.00
  Q 695.39 453.78 697.02 456.08
  Q 697.31 456.49 697.28 456.99
  C 697.15 458.96 698.30 459.88 698.90 461.16
  Q 701.09 465.83 703.29 470.50
  C 703.49 472.63 702.59 476.20 704.54 477.50
  Q 704.93 477.77 704.99 478.24
  Q 705.20 479.88 706.65 480.36
  Q 707.08 480.50 707.40 480.82
  Q 708.46 481.90 708.50 483.35
  Q 708.52 483.88 708.87 484.29
  C 711.60 487.37 709.80 489.43 710.75 492.45
  Q 711.87 496.00 714.23 498.91
  Q 714.55 499.30 714.49 499.81
  Q 714.42 500.52 714.80 500.93
  C 717.49 503.86 719.07 507.27 720.56 510.74
  C 721.58 513.13 723.53 514.61 724.44 517.35
  Q 724.59 517.81 724.97 518.13
  Q 729.11 521.60 731.28 528.22
  Q 732.03 530.52 735.25 531.96
  Q 738.62 537.92 741.96 543.91
  C 745.78 550.74 751.17 558.01 755.31 565.45
  C 757.36 569.14 768.12 572.55 772.23 573.62
  Q 781.93 576.14 786.92 584.64
  C 789.08 588.33 789.74 594.31 790.14 598.06
  C 791.96 614.68 783.33 629.46 765.99 632.03
  C 758.51 633.14 752.86 631.17 745.62 627.53
  C 744.96 627.20 744.45 627.23 743.75 627.21
  Q 744.39 625.69 743.33 624.41
  Q 742.91 623.90 742.29 624.13
  L 732.05 627.77
  Q 731.57 627.94 731.06 627.91
  L 726.10 627.68
  Q 725.61 627.65 725.35 627.25
  Q 723.34 624.20 719.75 623.79
  Q 717.54 620.61 717.37 616.66
  Q 717.35 616.16 717.08 615.72
  Q 715.15 612.50 715.05 608.75
  C 714.90 603.40 711.64 595.78 708.80 591.23
  C 703.75 583.12 699.31 574.18 693.18 566.85
  Q 688.99 561.84 685.50 556.29
  Q 687.43 554.14 685.94 552.02
  C 683.28 548.22 681.40 544.21 678.74 541.97
  Q 678.31 541.61 677.76 541.55
  Q 675.98 541.37 675.02 539.81
  Q 674.73 539.33 674.18 539.26
  Q 673.44 539.17 672.96 539.75
  Q 660.96 524.73 647.61 510.88
  C 644.67 507.84 643.03 504.00 640.12 501.13
  Q 632.77 493.88 626.53 484.70
  A 0.89 0.89 0.0 0 0 625.10 484.64
  Q 618.63 492.60 610.23 498.88
  C 606.38 501.77 603.89 505.92 599.84 508.59
  C 588.40 516.10 572.82 520.51 560.56 523.31
  Q 559.34 523.59 556.42 523.45
  C 554.28 523.34 552.61 524.13 550.48 524.19
  C 543.80 524.39 541.62 529.22 542.95 535.27
  C 547.98 558.13 554.29 579.98 557.58 603.75
  C 558.57 610.90 558.20 617.43 555.91 623.68
  C 554.89 626.48 552.32 627.17 549.30 627.33
  C 540.36 627.80 534.51 632.09 525.78 637.35
  C 519.65 641.04 514.81 642.92 508.20 643.45
  Q 503.97 643.79 502.03 644.25
  C 499.43 644.85 496.44 646.01 493.90 645.71
  C 486.31 644.82 481.94 639.37 477.40 633.75
  C 468.54 622.81 469.31 606.92 474.12 594.11
  C 476.97 586.54 477.88 580.34 476.88 571.80
  C 475.20 557.61 471.64 543.76 468.95 529.64
  Q 468.75 528.59 468.25 527.44
  C 467.24 525.09 467.44 522.48 466.69 519.98
  C 464.85 513.90 463.50 508.18 460.46 502.50
  C 461.71 497.48 458.10 493.19 454.22 490.60
  Q 453.78 490.31 453.56 490.79
  Q 453.45 491.04 453.66 491.31
  Q 454.07 491.85 454.10 491.86
  Q 455.87 492.37 456.21 494.50
  L 451.79 491.50
  Q 450.07 489.81 447.93 490.81
  Q 447.48 491.03 446.99 490.97
  Q 445.25 490.78 444.12 492.04
  Q 443.76 492.44 443.33 492.12
  C 440.78 490.21 438.32 490.46 436.13 492.88
  Q 432.89 496.45 426.79 502.06
  Q 416.64 511.39 407.67 526.93
  C 405.47 530.73 405.93 536.95 400.28 537.37
  Q 399.74 537.41 399.62 537.94
  C 398.06 544.79 395.42 550.60 393.71 556.67
  Q 392.56 560.78 392.24 567.52
  Q 391.41 584.94 388.23 598.24
  Q 386.78 604.34 382.03 611.40
  C 380.24 614.06 377.93 614.12 375.66 616.00
  C 371.39 619.52 366.87 622.44 361.18 622.55
  C 351.12 622.74 343.11 618.26 337.67 609.81
  C 332.53 601.85 330.42 594.68 334.05 585.53
  C 336.09 580.37 337.76 575.67 340.56 570.76
  C 341.85 568.49 342.11 566.19 343.58 563.99
  Q 346.90 558.98 348.26 552.01
  Q 351.27 536.59 357.89 508.63
  C 358.86 504.53 360.95 501.24 363.06 497.66
  Q 363.33 497.20 363.23 496.69
  C 362.29 491.75 362.86 486.38 366.52 482.68
  Q 370.09 479.08 370.42 474.69
  Q 371.09 465.71 375.06 459.46
  Q 376.29 457.52 376.60 455.63
  Q 378.34 444.95 379.45 442.20
  C 382.16 435.42 382.57 429.79 383.68 423.23
  C 384.66 417.42 389.68 411.20 393.02 406.43
  C 397.01 400.74 401.19 393.71 405.94 387.76
  C 409.75 382.97 409.28 379.53 415.18 375.94
  Q 419.19 373.51 421.63 369.50
  C 425.03 363.91 428.53 360.43 434.76 358.09
  Q 435.24 357.91 435.46 357.46
  C 439.11 350.24 443.79 344.06 447.68 337.00
  Q 447.92 336.55 447.75 336.07
  C 445.13 328.77 450.37 325.08 449.76 317.89
  Q 448.07 297.66 442.53 278.99
  Q 435.03 253.69 429.90 230.78
  Q 421.65 193.96 415.12 156.82
  C 413.36 146.84 412.81 135.14 411.08 124.32
  C 410.01 117.63 400.84 95.42 412.74 93.80
  C 421.54 92.61 430.80 109.62 433.18 116.66
  Q 439.14 134.31 443.02 156.25
  Q 444.49 164.58 449.69 175.15
  C 458.29 192.64 465.12 204.32 470.96 214.40
  C 473.17 218.21 475.94 221.62 477.54 225.99
  Q 479.54 231.44 481.74 236.82
  Q 482.41 238.43 484.07 240.12
  C 487.68 243.80 488.00 247.16 489.21 251.92
  C 494.12 271.36 497.34 283.07 499.43 299.63
  C 500.12 305.07 501.30 316.97 504.22 319.98
  Q 504.55 320.32 504.94 320.04
  C 509.10 317.01 507.57 281.17 507.70 273.93
  Q 507.77 270.11 507.29 265.61
  C 506.32 256.43 508.92 247.78 509.11 238.54
  C 509.56 216.04 510.64 191.41 517.34 169.78
  C 519.39 163.17 525.39 151.87 534.26 155.24
  C 537.24 156.37 543.64 163.88 545.45 167.09
  Q 553.73 181.71 560.79 196.95
  C 566.54 209.37 577.74 213.06 588.93 219.58
  C 591.81 221.26 594.19 221.25 597.69 220.49
  C 610.11 217.78 620.80 219.29 632.51 221.22
  C 639.08 222.30 652.54 200.19 655.86 195.05
  C 659.60 189.24 664.40 182.87 668.18 176.43
  Q 669.25 174.59 674.14 170.08
  Q 674.55 169.70 675.10 169.73
  Q 678.45 169.93 679.76 166.95
  Q 680.15 166.08 680.51 166.96
  Q 681.33 168.97 681.81 172.24
  C 683.99 186.99 684.57 202.52 682.70 217.00
  Q 681.63 225.31 681.16 233.69
  C 680.89 238.51 684.03 239.84 684.87 243.91
  Q 689.66 267.02 692.30 290.47
  Q 692.70 294.04 692.14 298.00
  C 691.55 302.10 691.38 305.92 690.24 309.92
  C 686.55 322.89 683.98 336.68 677.51 348.59
  C 675.02 353.16 667.49 360.27 667.44 365.57
  Q 667.41 370.06 667.00 374.51
  Z
  M 474.29 528.75
  Q 477.41 542.24 479.00 556.00
  Q 479.33 558.81 481.16 562.36
  Q 481.39 562.81 481.34 563.32
  Q 480.64 570.55 482.95 577.36
  C 483.36 578.58 483.21 579.75 483.64 581.05
  Q 483.80 581.52 483.71 582.00
  Q 482.21 590.09 481.58 598.30
  Q 481.30 601.99 480.21 603.96
  C 477.17 609.42 473.90 616.24 478.58 621.58
  Q 480.73 624.04 480.79 624.12
  C 482.44 626.23 483.96 627.95 485.64 630.39
  C 487.37 632.90 495.19 633.72 498.52 632.18
  C 502.35 630.40 505.65 632.61 509.68 631.57
  C 515.30 630.13 520.89 629.18 526.49 627.65
  C 527.65 627.33 528.53 626.57 529.69 626.10
  Q 530.18 625.91 530.54 625.51
  L 539.91 615.28
  Q 540.26 614.90 540.74 614.71
  L 552.70 609.92
  Q 553.22 609.70 553.15 609.14
  Q 551.79 599.18 549.47 585.75
  C 548.65 581.05 546.87 576.25 545.97 572.39
  Q 543.97 563.90 540.77 552.74
  C 540.07 550.30 538.70 548.25 538.29 546.07
  C 537.01 539.26 532.83 520.01 542.01 516.54
  Q 545.81 515.10 549.87 514.49
  Q 550.38 514.42 550.85 514.63
  C 554.45 516.25 559.06 517.62 562.22 514.38
  Q 562.57 514.02 563.05 513.91
  L 574.52 511.17
  Q 575.05 511.04 575.34 510.58
  C 577.01 507.93 579.68 507.79 582.24 507.18
  C 584.32 506.68 586.67 507.96 588.41 506.72
  Q 588.52 506.64 588.39 506.60
  L 588.09 506.50
  Q 587.71 506.37 588.01 506.10
  Q 591.64 502.70 596.20 500.72
  Q 596.63 500.53 596.94 500.17
  Q 598.88 497.88 601.97 498.30
  A 2.01 2.00 28.9 0 0 603.53 497.85
  Q 610.82 491.75 617.00 484.57
  C 619.20 482.02 619.54 478.87 621.89 476.12
  Q 622.24 475.71 622.78 475.70
  Q 625.76 475.60 627.44 478.15
  Q 627.74 478.61 628.23 478.85
  Q 629.91 479.71 630.49 481.54
  Q 630.65 482.07 631.06 482.43
  C 634.23 485.27 635.23 487.75 639.75 490.27
  C 641.28 491.13 642.84 493.63 643.48 495.64
  C 644.31 498.22 645.65 499.56 645.90 502.97
  Q 645.93 503.43 646.38 503.59
  Q 647.43 503.95 647.77 504.90
  Q 647.96 505.42 648.38 505.77
  Q 652.41 509.21 655.53 513.46
  Q 656.64 514.96 658.59 516.39
  C 662.18 519.04 663.55 522.67 667.97 524.61
  Q 673.15 533.08 680.53 539.61
  C 682.90 541.71 683.74 544.26 685.72 546.69
  C 687.30 548.64 692.29 555.03 692.57 557.12
  Q 692.63 557.59 692.95 557.94
  Q 695.29 560.55 697.97 562.75
  C 700.41 564.76 703.93 571.36 704.11 574.50
  Q 704.14 575.01 704.50 575.37
  C 705.72 576.58 706.23 578.04 707.48 579.15
  C 711.57 582.77 712.14 585.88 714.46 589.54
  C 716.92 593.43 718.01 597.95 719.20 602.36
  C 719.69 604.15 718.88 606.17 720.63 607.81
  Q 721.03 608.19 721.10 608.73
  L 721.31 610.49
  Q 721.36 610.97 721.67 611.34
  Q 723.17 613.14 724.57 615.03
  C 727.26 618.67 731.60 618.66 735.73 617.75
  C 742.24 616.31 747.45 618.42 752.80 623.17
  C 758.29 628.04 767.29 624.83 773.52 623.63
  Q 774.01 623.54 774.34 623.16
  C 776.20 621.08 778.60 620.90 780.44 619.28
  Q 782.49 617.48 784.37 615.48
  Q 784.71 615.11 784.71 614.60
  C 784.72 612.14 786.05 610.11 786.22 607.98
  C 786.74 601.34 787.01 589.70 782.78 586.04
  C 780.26 583.87 775.70 583.08 772.54 581.50
  C 768.10 579.27 760.74 579.08 757.60 575.55
  Q 754.68 572.27 751.83 568.92
  C 749.45 566.12 748.97 562.30 746.48 559.13
  Q 737.85 548.15 731.79 535.58
  C 730.40 532.70 728.01 530.39 726.49 527.00
  Q 724.96 523.59 721.62 519.39
  C 720.87 518.45 720.68 517.26 720.01 516.22
  C 716.51 510.78 712.81 504.86 710.42 498.83
  C 709.07 495.44 706.39 492.20 703.83 487.19
  C 702.96 485.47 702.97 483.81 701.95 482.20
  C 699.86 478.92 698.37 474.61 697.03 471.90
  Q 694.17 466.06 691.47 460.15
  Q 690.81 458.69 689.03 456.69
  C 686.77 454.13 685.94 450.22 684.78 447.96
  C 681.46 441.53 678.26 432.66 676.32 428.14
  Q 672.56 419.36 668.70 410.63
  C 665.69 403.83 664.70 395.96 662.16 388.78
  C 660.52 384.15 661.26 378.02 661.08 373.08
  C 660.75 364.19 665.39 356.44 669.99 349.85
  Q 670.31 349.40 670.84 349.22
  L 673.67 348.23
  Q 674.21 348.04 674.37 347.49
  Q 676.26 340.92 679.08 334.71
  C 681.26 329.89 681.82 324.60 683.89 319.63
  C 684.78 317.48 684.96 315.33 685.76 313.10
  C 688.14 306.45 689.61 295.31 687.76 289.25
  Q 685.61 282.17 685.73 277.99
  C 685.82 274.98 685.03 272.52 685.09 270.01
  C 685.28 262.30 682.66 252.82 681.42 245.06
  Q 681.20 243.65 679.73 239.66
  C 677.00 232.28 679.18 224.66 679.72 217.70
  Q 681.04 200.62 681.49 183.43
  A 1.59 1.59 0.0 0 0 679.80 181.80
  C 676.06 182.02 675.55 184.72 672.95 186.61
  Q 667.65 190.47 665.12 197.03
  C 664.00 199.94 662.13 202.63 661.34 205.84
  Q 660.80 208.07 656.28 211.77
  C 654.26 213.42 653.70 219.51 650.31 221.33
  Q 646.96 223.13 645.03 225.28
  C 640.99 229.80 637.27 232.10 631.00 232.43
  Q 618.64 233.10 605.40 232.04
  C 601.93 231.76 599.18 232.60 596.00 233.56
  C 592.15 234.71 585.33 233.71 581.74 231.99
  C 577.78 230.09 571.89 228.08 569.16 224.61
  Q 565.83 220.36 563.31 215.60
  C 560.60 210.46 557.09 205.79 554.79 200.30
  C 553.75 197.83 552.26 195.92 552.33 192.61
  Q 552.34 192.16 552.12 191.76
  L 550.76 189.29
  Q 550.25 188.38 550.98 189.13
  Q 553.23 191.46 553.29 193.00
  C 553.49 198.68 558.96 206.86 561.66 211.15
  C 564.21 215.20 567.82 223.30 572.98 225.67
  C 575.78 226.95 577.44 227.90 579.75 228.98
  C 582.72 230.37 585.96 230.04 589.20 230.89
  C 594.40 232.26 598.37 231.40 603.43 229.89
  C 607.85 228.57 611.46 230.55 615.30 230.75
  Q 621.98 231.10 626.56 230.57
  C 630.61 230.10 637.71 230.97 640.49 227.48
  Q 644.77 222.13 650.60 218.54
  Q 651.03 218.28 651.27 217.83
  C 652.84 214.79 653.84 212.38 656.42 209.85
  Q 659.56 206.77 660.22 204.50
  Q 661.60 199.73 666.23 192.48
  C 669.42 187.49 674.42 179.61 680.62 179.14
  Q 681.45 179.07 680.98 178.39
  L 680.33 177.42
  Q 680.02 176.96 679.47 177.10
  C 674.05 178.47 670.65 182.19 667.82 187.02
  C 664.80 192.19 661.27 196.92 658.94 202.48
  C 657.41 206.12 654.92 208.62 652.48 211.61
  C 650.66 213.85 650.44 216.76 647.42 218.53
  Q 646.06 219.33 644.76 221.22
  C 641.78 225.56 637.38 229.04 631.85 229.24
  Q 624.42 229.51 617.00 230.11
  C 614.24 230.32 610.04 227.77 606.38 228.05
  C 600.74 228.48 596.51 232.36 590.77 230.25
  C 587.19 228.94 583.70 229.43 580.35 227.92
  C 579.44 227.50 576.33 226.47 575.87 225.79
  Q 575.59 225.38 575.10 225.30
  Q 571.81 224.79 570.15 221.93
  Q 569.88 221.47 569.39 221.27
  C 567.82 220.63 567.38 218.39 565.90 217.22
  Q 565.50 216.91 565.29 216.46
  C 562.46 210.36 557.94 205.29 556.76 198.59
  C 556.28 195.91 554.55 193.86 553.66 191.35
  Q 552.30 187.55 549.07 185.12
  Q 548.69 184.84 548.60 184.37
  Q 548.18 182.05 547.16 179.92
  C 546.42 178.37 543.40 176.31 543.21 175.00
  C 542.48 169.73 539.14 170.54 535.58 168.67
  C 533.23 167.44 527.80 164.98 525.64 167.11
  Q 523.33 169.37 520.60 171.20
  Q 520.19 171.48 520.07 171.97
  Q 517.16 184.13 514.80 196.40
  Q 513.95 200.81 513.56 207.70
  C 513.16 214.68 511.43 221.77 511.52 228.54
  C 511.63 235.70 511.92 241.40 511.84 249.92
  Q 511.78 257.54 512.87 265.13
  C 513.14 266.99 512.71 268.76 512.90 270.67
  C 513.29 274.48 512.90 276.08 511.18 279.22
  Q 510.93 279.67 511.02 280.16
  C 511.45 282.85 512.24 285.33 512.21 288.04
  Q 512.08 298.77 511.96 309.51
  Q 511.94 310.46 511.39 312.39
  C 510.75 314.58 511.75 317.02 511.82 318.57
  C 512.02 322.78 510.89 334.76 504.01 332.46
  Q 503.51 332.29 503.22 331.85
  L 500.99 328.52
  Q 500.75 328.17 500.79 327.76
  Q 501.10 324.23 498.96 320.06
  C 497.22 316.66 497.49 310.72 497.14 307.96
  C 496.32 301.50 495.99 294.35 493.66 288.20
  C 490.33 279.40 489.40 270.48 487.63 261.32
  C 487.22 259.19 488.19 256.40 486.45 254.30
  Q 482.36 249.38 479.84 245.33
  C 478.13 242.57 477.37 239.19 476.30 236.02
  C 475.71 234.27 474.25 233.10 474.18 230.81
  Q 474.16 230.31 473.89 229.88
  C 472.17 227.20 470.38 224.79 469.05 221.89
  C 466.99 217.41 464.98 212.30 462.18 208.26
  C 456.79 200.51 452.96 190.75 448.40 182.36
  C 445.48 177.00 442.18 170.13 441.10 163.86
  C 440.65 161.21 439.38 159.07 438.96 156.39
  Q 438.30 152.09 437.98 150.71
  C 437.25 147.53 437.58 144.39 436.60 141.32
  C 435.65 138.36 435.25 134.87 434.41 132.36
  Q 432.14 125.48 429.76 118.65
  Q 429.60 118.19 429.17 117.96
  C 422.11 114.14 424.66 100.77 414.09 102.66
  Q 413.59 102.75 413.37 103.22
  C 412.06 106.10 416.01 117.39 416.91 120.95
  C 417.69 124.08 416.90 126.92 417.79 130.20
  Q 419.43 136.20 419.06 142.43
  C 418.83 146.19 420.43 149.94 420.92 153.65
  C 422.21 163.58 424.36 173.25 425.78 183.15
  C 426.01 184.75 425.76 187.04 426.75 188.98
  Q 426.97 189.42 426.96 189.91
  C 426.66 201.20 430.09 209.43 432.22 220.09
  Q 434.57 231.89 437.78 243.48
  C 439.33 249.09 441.50 258.74 444.44 266.20
  C 444.98 267.57 444.85 269.29 445.24 270.71
  Q 449.19 285.02 452.56 299.49
  C 453.19 302.22 454.22 304.39 454.15 307.25
  Q 453.94 315.21 455.43 323.01
  C 455.92 325.59 454.99 327.62 455.28 330.00
  Q 455.89 334.99 453.74 338.74
  C 452.08 341.66 450.33 345.94 449.05 349.88
  Q 448.16 352.60 446.08 354.67
  Q 445.74 355.02 445.57 355.48
  Q 444.45 358.49 441.24 362.01
  C 440.01 363.35 439.08 365.36 437.32 366.76
  Q 431.12 371.66 429.75 373.74
  C 426.91 378.03 424.21 382.23 420.07 385.44
  Q 415.12 389.29 413.98 395.67
  Q 413.90 396.16 413.57 396.53
  C 412.74 397.49 411.88 398.00 411.24 399.09
  Q 407.86 404.89 405.58 411.18
  Q 405.49 411.41 405.26 411.49
  C 404.99 411.59 404.78 411.78 404.68 412.07
  C 403.34 416.11 400.36 417.96 398.79 421.37
  Q 394.77 430.15 392.32 439.49
  C 391.87 441.21 390.00 444.92 389.12 446.36
  Q 385.01 453.09 383.43 461.48
  Q 382.85 464.55 381.15 468.08
  Q 380.94 468.52 380.92 469.01
  C 380.81 472.00 378.33 474.23 377.34 477.72
  Q 377.27 477.98 377.45 477.78
  L 378.83 476.21
  Q 379.17 475.82 379.16 475.31
  Q 379.15 473.86 380.40 472.75
  A 0.66 0.66 0.0 0 1 381.44 473.51
  Q 378.02 481.19 374.41 486.91
  Q 373.10 489.00 372.86 490.45
  Q 372.79 490.92 372.48 491.28
  C 370.43 493.66 370.26 496.46 368.79 498.80
  C 363.12 507.87 360.50 517.50 358.33 528.28
  Q 357.82 530.82 356.27 534.86
  C 354.29 540.07 354.31 545.26 353.53 550.31
  Q 353.06 553.34 352.72 556.42
  C 352.36 559.70 350.10 562.14 348.81 565.14
  C 347.61 567.95 345.86 570.35 344.81 573.37
  C 342.32 580.48 338.37 586.59 336.12 593.94
  C 334.94 597.81 337.08 601.63 338.91 605.24
  C 344.12 615.53 352.14 620.09 364.23 618.20
  Q 366.03 617.92 366.82 616.89
  Q 367.12 616.50 367.55 616.25
  C 371.78 613.78 376.67 611.29 379.37 607.10
  C 385.97 596.86 388.67 580.17 388.61 567.25
  Q 388.57 557.03 392.55 546.60
  C 394.93 540.35 394.04 535.96 400.04 531.43
  Q 401.91 530.03 402.81 528.51
  Q 406.95 521.50 411.06 514.48
  C 413.35 510.58 416.28 507.17 418.94 503.42
  C 420.74 500.88 423.26 499.13 425.36 496.75
  C 428.89 492.75 434.67 486.20 438.50 485.09
  C 440.82 484.42 441.94 483.74 443.78 482.66
  C 447.61 480.42 455.99 481.88 460.03 483.18
  C 461.31 483.59 462.13 484.65 463.30 485.38
  Q 463.74 485.66 463.86 486.17
  C 465.06 491.37 469.64 496.14 469.38 501.38
  Q 469.05 507.93 470.65 514.31
  C 471.09 516.06 471.13 518.17 471.91 520.11
  C 473.19 523.30 473.42 525.77 474.29 528.75
  Z"
/>
<path fill="#1b1916" d="
  M 667.97 524.61
  Q 673.74 531.28 680.04 537.47
  Q 682.04 539.44 683.94 542.47
  Q 687.90 548.78 693.77 553.45
  Q 694.19 553.78 694.26 554.56
  Q 694.30 555.05 694.70 555.33
  C 701.24 559.86 703.98 566.43 705.58 574.15
  Q 705.69 574.69 706.24 574.78
  C 710.25 575.42 711.59 571.34 714.99 570.02
  Q 715.49 569.83 715.49 569.29
  L 715.51 565.81
  A 0.71 0.71 0.0 0 1 716.78 565.37
  C 718.84 567.97 717.27 569.00 716.25 571.23
  C 714.45 575.17 715.19 583.30 715.84 587.43
  Q 715.93 587.94 716.27 588.33
  Q 718.10 590.43 717.76 593.13
  Q 717.70 593.61 717.98 594.01
  Q 719.16 595.72 719.45 599.05
  Q 719.62 601.01 722.03 607.75
  Q 722.19 608.19 722.62 608.39
  C 724.17 609.12 724.64 612.64 727.59 613.92
  C 730.51 615.20 734.15 613.07 736.81 611.71
  Q 737.24 611.49 737.73 611.57
  C 743.02 612.43 747.82 615.43 752.21 618.34
  C 758.28 622.37 761.83 620.14 768.24 619.82
  Q 775.02 619.48 780.98 615.93
  Q 781.43 615.66 781.46 615.14
  C 781.73 610.45 780.60 606.43 782.73 601.24
  C 783.22 600.05 781.36 597.62 780.86 596.26
  Q 780.69 595.80 780.32 595.47
  C 777.49 592.99 776.80 589.35 772.18 588.63
  Q 771.70 588.56 771.31 588.27
  Q 766.40 584.68 759.46 584.11
  Q 754.21 583.69 751.25 579.17
  C 749.96 577.21 748.34 576.19 746.74 574.67
  C 744.28 572.32 743.58 569.27 742.62 566.12
  C 741.56 562.62 739.26 559.81 738.05 556.25
  Q 736.96 553.06 735.74 551.07
  C 733.30 547.06 732.46 543.26 729.99 540.40
  Q 729.67 540.03 729.54 539.55
  C 727.94 533.59 722.32 531.58 721.53 526.21
  Q 721.45 525.71 721.09 525.35
  C 717.86 522.24 718.16 518.52 715.18 515.42
  Q 713.63 513.81 712.89 512.20
  Q 710.32 506.61 708.65 500.65
  Q 708.51 500.16 708.07 499.90
  Q 705.23 498.18 704.37 495.17
  C 703.37 491.66 702.08 488.27 701.21 484.72
  C 700.72 482.70 699.53 481.98 697.56 481.99
  Q 697.02 481.99 696.79 481.49
  C 695.81 479.30 696.47 476.87 695.91 474.85
  Q 693.67 466.76 687.94 459.27
  Q 686.39 457.23 686.14 453.83
  Q 686.10 453.31 685.67 453.02
  C 679.85 449.03 680.17 444.66 677.97 439.07
  C 676.30 434.81 675.37 432.24 673.37 426.31
  C 671.98 422.14 669.47 418.03 668.09 414.47
  C 666.54 410.45 665.27 407.08 664.09 402.47
  C 662.89 397.75 658.53 395.41 656.81 390.60
  C 655.91 388.11 654.25 386.22 654.01 383.62
  C 653.69 379.98 652.67 367.91 654.81 364.55
  Q 657.18 360.84 662.21 358.50
  Q 662.67 358.29 662.88 357.83
  Q 665.06 352.90 668.80 349.11
  C 670.33 347.56 671.08 345.37 673.33 344.07
  Q 673.75 343.82 673.97 343.38
  Q 677.72 335.82 679.40 327.50
  C 680.37 322.69 678.76 319.38 681.93 314.62
  Q 682.22 314.18 682.22 313.65
  Q 682.20 309.24 681.97 296.00
  C 681.91 292.81 679.20 292.43 677.11 294.15
  Q 676.74 294.45 676.61 294.92
  C 675.65 298.57 672.37 298.68 673.11 303.84
  Q 673.18 304.33 672.93 304.75
  Q 672.19 305.98 672.34 307.35
  Q 672.40 307.87 672.23 308.37
  L 671.65 310.08
  Q 671.45 310.68 670.83 310.53
  L 668.65 309.98
  Q 668.17 309.86 667.74 310.12
  C 663.30 312.81 664.57 315.76 662.77 319.28
  Q 660.38 323.91 656.07 326.97
  Q 655.67 327.26 655.56 327.74
  Q 654.84 331.16 651.72 331.71
  C 648.29 332.30 644.91 333.28 641.44 333.88
  Q 640.92 333.97 640.60 334.40
  C 637.88 338.04 640.37 340.68 643.69 342.15
  Q 644.24 342.39 643.92 342.90
  Q 643.50 343.59 642.65 343.46
  Q 642.21 343.38 641.84 343.63
  Q 637.85 346.28 636.68 348.95
  C 634.87 353.10 631.16 353.97 627.88 356.27
  Q 627.44 356.57 626.96 356.36
  Q 619.78 353.34 612.03 352.65
  Q 611.45 352.60 611.16 352.10
  L 610.35 350.71
  Q 610.09 350.27 610.35 349.83
  C 611.19 348.39 611.34 346.82 611.94 345.53
  Q 614.29 340.47 619.33 337.90
  Q 619.82 337.66 619.96 337.13
  Q 621.87 330.02 620.09 322.93
  Q 619.97 322.45 619.49 322.37
  L 616.48 321.88
  Q 615.94 321.79 615.49 322.10
  L 611.01 325.14
  Q 610.57 325.43 610.06 325.59
  Q 604.64 327.24 601.06 331.64
  C 599.39 333.69 598.04 334.26 595.65 334.75
  Q 595.08 334.86 594.68 335.28
  L 590.34 339.75
  Q 590.18 339.92 590.11 339.70
  Q 590.07 339.56 590.00 339.47
  Q 589.94 339.41 589.90 339.48
  L 589.45 340.32
  Q 589.38 340.46 589.25 340.37
  Q 589.15 340.29 589.07 340.17
  Q 588.04 338.45 588.49 340.50
  Q 588.59 340.93 588.30 340.99
  Q 588.09 341.04 588.08 340.83
  Q 588.07 340.57 587.91 340.39
  Q 587.63 340.07 587.63 340.50
  L 587.62 341.08
  Q 587.62 341.64 587.29 341.19
  L 586.91 340.67
  Q 586.74 340.44 586.75 340.73
  Q 586.75 340.89 586.75 341.06
  Q 586.76 341.16 586.66 341.18
  L 579.36 342.61
  Q 579.07 342.66 578.98 342.38
  Q 578.94 342.26 578.75 342.25
  Q 578.56 342.24 578.61 342.42
  L 578.74 342.95
  Q 578.82 343.25 578.54 343.12
  Q 577.59 342.67 577.42 343.78
  Q 577.35 344.31 577.22 343.79
  L 576.53 340.86
  Q 576.49 340.67 576.31 340.73
  Q 576.11 340.80 575.92 340.86
  Q 575.77 340.91 575.63 340.82
  Q 574.64 340.11 573.66 340.86
  Q 573.27 341.16 572.79 341.29
  C 569.19 342.28 567.12 345.43 564.68 348.00
  C 563.28 349.48 562.98 351.17 561.60 352.83
  Q 561.28 353.22 560.78 353.10
  Q 557.20 352.26 554.23 350.00
  Q 553.80 349.67 553.25 349.66
  C 551.33 349.64 549.41 349.03 547.65 349.09
  Q 537.76 349.43 527.98 350.89
  C 526.62 351.09 524.54 350.63 523.04 351.50
  Q 522.48 351.83 522.89 352.32
  Q 523.36 352.88 523.20 353.40
  Q 523.16 353.53 523.28 353.61
  L 524.35 354.33
  Q 525.27 354.95 524.71 355.90
  L 521.35 361.69
  Q 521.15 362.04 520.80 362.22
  C 516.45 364.43 515.63 368.64 510.08 370.36
  Q 509.58 370.52 509.31 370.96
  C 507.06 374.65 504.23 378.69 504.17 383.01
  Q 504.12 386.39 505.14 389.67
  C 505.97 392.30 505.49 394.81 506.41 397.48
  C 507.35 400.22 510.20 402.27 512.19 404.60
  Q 512.53 404.99 512.56 405.50
  Q 512.90 410.00 515.51 413.56
  Q 517.01 415.60 517.00 416.94
  C 516.96 420.40 513.98 424.28 510.26 424.65
  Q 509.73 424.71 509.31 424.38
  Q 507.73 423.17 507.30 421.30
  Q 507.14 420.60 506.49 420.90
  Q 503.67 422.18 503.96 425.12
  Q 504.01 425.66 503.50 425.80
  Q 500.03 426.80 499.02 430.50
  Q 496.66 439.16 495.36 446.59
  C 495.03 448.47 493.91 450.86 494.32 453.56
  Q 494.39 454.06 494.13 454.49
  C 491.85 458.27 491.47 462.61 490.28 466.34
  Q 489.43 468.99 488.97 471.74
  C 488.59 474.08 487.29 476.06 486.83 478.44
  C 486.06 482.33 485.18 487.90 483.30 490.95
  Q 481.85 493.29 480.35 495.60
  Q 480.31 495.67 480.28 495.59
  Q 480.25 495.47 480.17 495.36
  Q 480.14 495.32 480.11 495.35
  Q 477.54 497.51 477.03 500.79
  Q 471.16 538.34 477.19 500.93
  Q 477.26 500.55 477.56 500.32
  Q 477.93 500.05 477.80 500.49
  C 476.26 505.86 476.61 511.02 475.18 516.19
  Q 474.31 519.34 473.57 522.51
  C 473.05 524.74 474.98 526.13 474.29 528.75
  C 473.42 525.77 473.19 523.30 471.91 520.11
  C 471.13 518.17 471.09 516.06 470.65 514.31
  Q 469.05 507.93 469.38 501.38
  C 469.64 496.14 465.06 491.37 463.86 486.17
  Q 463.74 485.66 463.30 485.38
  C 462.13 484.65 461.31 483.59 460.03 483.18
  C 455.99 481.88 447.61 480.42 443.78 482.66
  C 441.94 483.74 440.82 484.42 438.50 485.09
  C 434.67 486.20 428.89 492.75 425.36 496.75
  C 423.26 499.13 420.74 500.88 418.94 503.42
  C 416.28 507.17 413.35 510.58 411.06 514.48
  Q 406.95 521.50 402.81 528.51
  Q 401.91 530.03 400.04 531.43
  C 394.04 535.96 394.93 540.35 392.55 546.60
  Q 388.57 557.03 388.61 567.25
  C 388.67 580.17 385.97 596.86 379.37 607.10
  C 376.67 611.29 371.78 613.78 367.55 616.25
  Q 367.12 616.50 366.82 616.89
  Q 366.03 617.92 364.23 618.20
  C 352.14 620.09 344.12 615.53 338.91 605.24
  C 337.08 601.63 334.94 597.81 336.12 593.94
  C 338.37 586.59 342.32 580.48 344.81 573.37
  C 345.86 570.35 347.61 567.95 348.81 565.14
  C 350.10 562.14 352.36 559.70 352.72 556.42
  Q 353.06 553.34 353.53 550.31
  C 354.31 545.26 354.29 540.07 356.27 534.86
  Q 357.82 530.82 358.33 528.28
  C 360.50 517.50 363.12 507.87 368.79 498.80
  C 370.26 496.46 370.43 493.66 372.48 491.28
  Q 372.79 490.92 372.86 490.45
  Q 373.10 489.00 374.41 486.91
  Q 378.02 481.19 381.44 473.51
  A 0.66 0.66 0.0 0 0 380.40 472.75
  Q 379.15 473.86 379.16 475.31
  Q 379.17 475.82 378.83 476.21
  L 377.45 477.78
  Q 377.27 477.98 377.34 477.72
  C 378.33 474.23 380.81 472.00 380.92 469.01
  Q 380.94 468.52 381.15 468.08
  Q 382.85 464.55 383.43 461.48
  Q 385.01 453.09 389.12 446.36
  C 390.00 444.92 391.87 441.21 392.32 439.49
  Q 394.77 430.15 398.79 421.37
  C 400.36 417.96 403.34 416.11 404.68 412.07
  C 404.78 411.78 404.99 411.59 405.26 411.49
  Q 405.49 411.41 405.58 411.18
  Q 407.86 404.89 411.24 399.09
  C 411.88 398.00 412.74 397.49 413.57 396.53
  Q 413.90 396.16 413.98 395.67
  Q 415.12 389.29 420.07 385.44
  C 424.21 382.23 426.91 378.03 429.75 373.74
  Q 431.12 371.66 437.32 366.76
  C 439.08 365.36 440.01 363.35 441.24 362.01
  Q 444.45 358.49 445.57 355.48
  Q 445.74 355.02 446.08 354.67
  Q 448.16 352.60 449.05 349.88
  C 450.33 345.94 452.08 341.66 453.74 338.74
  Q 455.89 334.99 455.28 330.00
  C 454.99 327.62 455.92 325.59 455.43 323.01
  Q 453.94 315.21 454.15 307.25
  C 454.22 304.39 453.19 302.22 452.56 299.49
  Q 449.19 285.02 445.24 270.71
  C 444.85 269.29 444.98 267.57 444.44 266.20
  C 441.50 258.74 439.33 249.09 437.78 243.48
  Q 434.57 231.89 432.22 220.09
  C 430.09 209.43 426.66 201.20 426.96 189.91
  Q 426.97 189.42 426.75 188.98
  C 425.76 187.04 426.01 184.75 425.78 183.15
  C 424.36 173.25 422.21 163.58 420.92 153.65
  C 420.43 149.94 418.83 146.19 419.06 142.43
  Q 419.43 136.20 417.79 130.20
  C 416.90 126.92 417.69 124.08 416.91 120.95
  C 416.01 117.39 412.06 106.10 413.37 103.22
  Q 413.59 102.75 414.09 102.66
  C 424.66 100.77 422.11 114.14 429.17 117.96
  Q 429.60 118.19 429.76 118.65
  Q 432.14 125.48 434.41 132.36
  C 435.25 134.87 435.65 138.36 436.60 141.32
  C 437.58 144.39 437.25 147.53 437.98 150.71
  Q 438.30 152.09 438.96 156.39
  C 439.38 159.07 440.65 161.21 441.10 163.86
  C 442.18 170.13 445.48 177.00 448.40 182.36
  C 452.96 190.75 456.79 200.51 462.18 208.26
  C 464.98 212.30 466.99 217.41 469.05 221.89
  C 470.38 224.79 472.17 227.20 473.89 229.88
  Q 474.16 230.31 474.18 230.81
  C 474.25 233.10 475.71 234.27 476.30 236.02
  C 477.37 239.19 478.13 242.57 479.84 245.33
  Q 482.36 249.38 486.45 254.30
  C 488.19 256.40 487.22 259.19 487.63 261.32
  C 489.40 270.48 490.33 279.40 493.66 288.20
  C 495.99 294.35 496.32 301.50 497.14 307.96
  C 497.49 310.72 497.22 316.66 498.96 320.06
  Q 501.10 324.23 500.79 327.76
  Q 500.75 328.17 500.99 328.52
  L 503.22 331.85
  Q 503.51 332.29 504.01 332.46
  C 510.89 334.76 512.02 322.78 511.82 318.57
  C 511.75 317.02 510.75 314.58 511.39 312.39
  Q 511.94 310.46 511.96 309.51
  Q 512.08 298.77 512.21 288.04
  C 512.24 285.33 511.45 282.85 511.02 280.16
  Q 510.93 279.67 511.18 279.22
  C 512.90 276.08 513.29 274.48 512.90 270.67
  C 512.71 268.76 513.14 266.99 512.87 265.13
  Q 511.78 257.54 511.84 249.92
  C 511.92 241.40 511.63 235.70 511.52 228.54
  C 511.43 221.77 513.16 214.68 513.56 207.70
  Q 513.95 200.81 514.80 196.40
  Q 517.16 184.13 520.07 171.97
  Q 520.19 171.48 520.60 171.20
  Q 523.33 169.37 525.64 167.11
  C 527.80 164.98 533.23 167.44 535.58 168.67
  C 539.14 170.54 542.48 169.73 543.21 175.00
  C 543.40 176.31 546.42 178.37 547.16 179.92
  Q 548.18 182.05 548.60 184.37
  Q 548.69 184.84 549.07 185.12
  Q 552.30 187.55 553.66 191.35
  C 554.55 193.86 556.28 195.91 556.76 198.59
  C 557.94 205.29 562.46 210.36 565.29 216.46
  Q 565.50 216.91 565.90 217.22
  C 567.38 218.39 567.82 220.63 569.39 221.27
  Q 569.88 221.47 570.15 221.93
  Q 571.81 224.79 575.10 225.30
  Q 575.59 225.38 575.87 225.79
  C 576.33 226.47 579.44 227.50 580.35 227.92
  C 583.70 229.43 587.19 228.94 590.77 230.25
  C 596.51 232.36 600.74 228.48 606.38 228.05
  C 610.04 227.77 614.24 230.32 617.00 230.11
  Q 624.42 229.51 631.85 229.24
  C 637.38 229.04 641.78 225.56 644.76 221.22
  Q 646.06 219.33 647.42 218.53
  C 650.44 216.76 650.66 213.85 652.48 211.61
  C 654.92 208.62 657.41 206.12 658.94 202.48
  C 661.27 196.92 664.80 192.19 667.82 187.02
  C 670.65 182.19 674.05 178.47 679.47 177.10
  Q 680.02 176.96 680.33 177.42
  L 680.98 178.39
  Q 681.45 179.07 680.62 179.14
  C 674.42 179.61 669.42 187.49 666.23 192.48
  Q 661.60 199.73 660.22 204.50
  Q 659.56 206.77 656.42 209.85
  C 653.84 212.38 652.84 214.79 651.27 217.83
  Q 651.03 218.28 650.60 218.54
  Q 644.77 222.13 640.49 227.48
  C 637.71 230.97 630.61 230.10 626.56 230.57
  Q 621.98 231.10 615.30 230.75
  C 611.46 230.55 607.85 228.57 603.43 229.89
  C 598.37 231.40 594.40 232.26 589.20 230.89
  C 585.96 230.04 582.72 230.37 579.75 228.98
  C 577.44 227.90 575.78 226.95 572.98 225.67
  C 567.82 223.30 564.21 215.20 561.66 211.15
  C 558.96 206.86 553.49 198.68 553.29 193.00
  Q 553.23 191.46 550.98 189.13
  Q 550.25 188.38 550.76 189.29
  L 552.12 191.76
  Q 552.34 192.16 552.33 192.61
  C 552.26 195.92 553.75 197.83 554.79 200.30
  C 557.09 205.79 560.60 210.46 563.31 215.60
  Q 565.83 220.36 569.16 224.61
  C 571.89 228.08 577.78 230.09 581.74 231.99
  C 585.33 233.71 592.15 234.71 596.00 233.56
  C 599.18 232.60 601.93 231.76 605.40 232.04
  Q 618.64 233.10 631.00 232.43
  C 637.27 232.10 640.99 229.80 645.03 225.28
  Q 646.96 223.13 650.31 221.33
  C 653.70 219.51 654.26 213.42 656.28 211.77
  Q 660.80 208.07 661.34 205.84
  C 662.13 202.63 664.00 199.94 665.12 197.03
  Q 667.65 190.47 672.95 186.61
  C 675.55 184.72 676.06 182.02 679.80 181.80
  A 1.59 1.59 0.0 0 1 681.49 183.43
  Q 681.04 200.62 679.72 217.70
  C 679.18 224.66 677.00 232.28 679.73 239.66
  Q 681.20 243.65 681.42 245.06
  C 682.66 252.82 685.28 262.30 685.09 270.01
  C 685.03 272.52 685.82 274.98 685.73 277.99
  Q 685.61 282.17 687.76 289.25
  C 689.61 295.31 688.14 306.45 685.76 313.10
  C 684.96 315.33 684.78 317.48 683.89 319.63
  C 681.82 324.60 681.26 329.89 679.08 334.71
  Q 676.26 340.92 674.37 347.49
  Q 674.21 348.04 673.67 348.23
  L 670.84 349.22
  Q 670.31 349.40 669.99 349.85
  C 665.39 356.44 660.75 364.19 661.08 373.08
  C 661.26 378.02 660.52 384.15 662.16 388.78
  C 664.70 395.96 665.69 403.83 668.70 410.63
  Q 672.56 419.36 676.32 428.14
  C 678.26 432.66 681.46 441.53 684.78 447.96
  C 685.94 450.22 686.77 454.13 689.03 456.69
  Q 690.81 458.69 691.47 460.15
  Q 694.17 466.06 697.03 471.90
  C 698.37 474.61 699.86 478.92 701.95 482.20
  C 702.97 483.81 702.96 485.47 703.83 487.19
  C 706.39 492.20 709.07 495.44 710.42 498.83
  C 712.81 504.86 716.51 510.78 720.01 516.22
  C 720.68 517.26 720.87 518.45 721.62 519.39
  Q 724.96 523.59 726.49 527.00
  C 728.01 530.39 730.40 532.70 731.79 535.58
  Q 737.85 548.15 746.48 559.13
  C 748.97 562.30 749.45 566.12 751.83 568.92
  Q 754.68 572.27 757.60 575.55
  C 760.74 579.08 768.10 579.27 772.54 581.50
  C 775.70 583.08 780.26 583.87 782.78 586.04
  C 787.01 589.70 786.74 601.34 786.22 607.98
  C 786.05 610.11 784.72 612.14 784.71 614.60
  Q 784.71 615.11 784.37 615.48
  Q 782.49 617.48 780.44 619.28
  C 778.60 620.90 776.20 621.08 774.34 623.16
  Q 774.01 623.54 773.52 623.63
  C 767.29 624.83 758.29 628.04 752.80 623.17
  C 747.45 618.42 742.24 616.31 735.73 617.75
  C 731.60 618.66 727.26 618.67 724.57 615.03
  Q 723.17 613.14 721.67 611.34
  Q 721.36 610.97 721.31 610.49
  L 721.10 608.73
  Q 721.03 608.19 720.63 607.81
  C 718.88 606.17 719.69 604.15 719.20 602.36
  C 718.01 597.95 716.92 593.43 714.46 589.54
  C 712.14 585.88 711.57 582.77 707.48 579.15
  C 706.23 578.04 705.72 576.58 704.50 575.37
  Q 704.14 575.01 704.11 574.50
  C 703.93 571.36 700.41 564.76 697.97 562.75
  Q 695.29 560.55 692.95 557.94
  Q 692.63 557.59 692.57 557.12
  C 692.29 555.03 687.30 548.64 685.72 546.69
  C 683.74 544.26 682.90 541.71 680.53 539.61
  Q 673.15 533.08 667.97 524.61
  Z
  M 545.97 249.37
  Q 544.22 245.15 543.69 240.59
  Q 543.44 238.44 542.43 236.75
  C 539.77 232.33 537.39 224.53 530.71 224.66
  Q 530.07 224.67 529.93 225.30
  Q 528.77 230.47 529.47 235.71
  Q 529.55 236.25 529.92 236.64
  Q 533.31 240.14 535.60 244.45
  C 536.82 246.75 537.14 249.07 539.65 250.84
  Q 541.79 252.34 544.07 253.67
  A 1.40 1.39 -67.2 0 0 546.12 252.83
  Q 546.62 250.96 545.97 249.37
  Z
  M 574.81 280.65
  C 575.91 288.36 577.69 297.83 587.74 297.76
  C 603.17 297.66 601.01 282.34 598.74 272.49
  C 597.45 266.88 595.51 264.67 590.01 263.54
  Q 579.77 261.44 575.36 268.95
  C 573.44 272.22 574.29 276.98 574.81 280.65
  Z
  M 643.37 291.25
  C 645.80 304.95 664.60 308.06 664.55 291.43
  C 664.51 281.58 663.14 273.05 653.42 269.67
  C 646.74 267.35 642.04 273.75 642.20 279.75
  Q 642.36 285.57 643.37 291.25
  Z"
/>
<path fill="#3b3331" fill-opacity="0.992" d="
  M 545.97 249.37
  Q 546.62 250.96 546.12 252.83
  A 1.40 1.39 -67.2 0 1 544.07 253.67
  Q 541.79 252.34 539.65 250.84
  C 537.14 249.07 536.82 246.75 535.60 244.45
  Q 533.31 240.14 529.92 236.64
  Q 529.55 236.25 529.47 235.71
  Q 528.77 230.47 529.93 225.30
  Q 530.07 224.67 530.71 224.66
  C 537.39 224.53 539.77 232.33 542.43 236.75
  Q 543.44 238.44 543.69 240.59
  Q 544.22 245.15 545.97 249.37
  Z"
/>
<path fill="#effefe" d="
  M 587.74 297.76
  C 577.69 297.83 575.91 288.36 574.81 280.65
  C 574.29 276.98 573.44 272.22 575.36 268.95
  Q 579.77 261.44 590.01 263.54
  C 595.51 264.67 597.45 266.88 598.74 272.49
  C 601.01 282.34 603.17 297.66 587.74 297.76
  Z"
/>
<path fill="#effefe" d="
  M 664.55 291.43
  C 664.60 308.06 645.80 304.95 643.37 291.25
  Q 642.36 285.57 642.20 279.75
  C 642.04 273.75 646.74 267.35 653.42 269.67
  C 663.14 273.05 664.51 281.58 664.55 291.43
  Z"
/>
<path fill="#0e0f0f" d="
  M 667.97 524.61
  C 663.55 522.67 662.18 519.04 658.59 516.39
  Q 656.64 514.96 655.53 513.46
  Q 652.41 509.21 648.38 505.77
  Q 647.96 505.42 647.77 504.90
  Q 647.43 503.95 646.38 503.59
  Q 645.93 503.43 645.90 502.97
  C 645.65 499.56 644.31 498.22 643.48 495.64
  C 642.84 493.63 641.28 491.13 639.75 490.27
  C 635.23 487.75 634.23 485.27 631.06 482.43
  Q 630.65 482.07 630.49 481.54
  Q 629.91 479.71 628.23 478.85
  Q 627.74 478.61 627.44 478.15
  Q 625.76 475.60 622.78 475.70
  Q 622.24 475.71 621.89 476.12
  C 619.54 478.87 619.20 482.02 617.00 484.57
  Q 610.82 491.75 603.53 497.85
  A 2.01 2.00 28.9 0 1 601.97 498.30
  Q 598.88 497.88 596.94 500.17
  Q 596.63 500.53 596.20 500.72
  Q 591.64 502.70 588.01 506.10
  Q 587.71 506.37 588.09 506.50
  L 588.39 506.60
  Q 588.52 506.64 588.41 506.72
  C 586.67 507.96 584.32 506.68 582.24 507.18
  C 579.68 507.79 577.01 507.93 575.34 510.58
  Q 575.05 511.04 574.52 511.17
  L 563.05 513.91
  Q 562.57 514.02 562.22 514.38
  C 559.06 517.62 554.45 516.25 550.85 514.63
  Q 550.38 514.42 549.87 514.49
  Q 545.81 515.10 542.01 516.54
  C 532.83 520.01 537.01 539.26 538.29 546.07
  C 538.70 548.25 540.07 550.30 540.77 552.74
  Q 543.97 563.90 545.97 572.39
  C 546.87 576.25 548.65 581.05 549.47 585.75
  Q 551.79 599.18 553.15 609.14
  Q 553.22 609.70 552.70 609.92
  L 540.74 614.71
  Q 540.26 614.90 539.91 615.28
  L 530.54 625.51
  Q 530.18 625.91 529.69 626.10
  C 528.53 626.57 527.65 627.33 526.49 627.65
  C 520.89 629.18 515.30 630.13 509.68 631.57
  C 505.65 632.61 502.35 630.40 498.52 632.18
  C 495.19 633.72 487.37 632.90 485.64 630.39
  C 483.96 627.95 482.44 626.23 480.79 624.12
  Q 480.73 624.04 478.58 621.58
  C 473.90 616.24 477.17 609.42 480.21 603.96
  Q 481.30 601.99 481.58 598.30
  Q 482.21 590.09 483.71 582.00
  Q 483.80 581.52 483.64 581.05
  C 483.21 579.75 483.36 578.58 482.95 577.36
  Q 480.64 570.55 481.34 563.32
  Q 481.39 562.81 481.16 562.36
  Q 479.33 558.81 479.00 556.00
  Q 477.41 542.24 474.29 528.75
  C 474.98 526.13 473.05 524.74 473.57 522.51
  Q 474.31 519.34 475.18 516.19
  C 476.61 511.02 476.26 505.86 477.80 500.49
  Q 477.93 500.05 477.56 500.32
  Q 477.26 500.55 477.19 500.93
  Q 471.16 538.34 477.03 500.79
  Q 477.54 497.51 480.11 495.35
  Q 480.14 495.32 480.17 495.36
  Q 480.25 495.47 480.28 495.59
  Q 480.31 495.67 480.35 495.60
  Q 481.85 493.29 483.30 490.95
  C 485.18 487.90 486.06 482.33 486.83 478.44
  C 487.29 476.06 488.59 474.08 488.97 471.74
  Q 489.43 468.99 490.28 466.34
  C 491.47 462.61 491.85 458.27 494.13 454.49
  Q 494.39 454.06 494.32 453.56
  C 493.91 450.86 495.03 448.47 495.36 446.59
  Q 496.66 439.16 499.02 430.50
  Q 500.03 426.80 503.50 425.80
  Q 504.01 425.66 503.96 425.12
  Q 503.67 422.18 506.49 420.90
  Q 507.14 420.60 507.30 421.30
  Q 507.73 423.17 509.31 424.38
  Q 509.73 424.71 510.26 424.65
  C 513.98 424.28 516.96 420.40 517.00 416.94
  Q 517.01 415.60 515.51 413.56
  Q 512.90 410.00 512.56 405.50
  Q 512.53 404.99 512.19 404.60
  C 510.20 402.27 507.35 400.22 506.41 397.48
  C 505.49 394.81 505.97 392.30 505.14 389.67
  Q 504.12 386.39 504.17 383.01
  C 504.23 378.69 507.06 374.65 509.31 370.96
  Q 509.58 370.52 510.08 370.36
  C 515.63 368.64 516.45 364.43 520.80 362.22
  Q 521.15 362.04 521.35 361.69
  L 524.71 355.90
  Q 525.27 354.95 524.35 354.33
  L 523.28 353.61
  Q 523.16 353.53 523.20 353.40
  Q 523.36 352.88 522.89 352.32
  Q 522.48 351.83 523.04 351.50
  C 524.54 350.63 526.62 351.09 527.98 350.89
  Q 537.76 349.43 547.65 349.09
  C 549.41 349.03 551.33 349.64 553.25 349.66
  Q 553.80 349.67 554.23 350.00
  Q 557.20 352.26 560.78 353.10
  Q 561.28 353.22 561.60 352.83
  C 562.98 351.17 563.28 349.48 564.68 348.00
  C 567.12 345.43 569.19 342.28 572.79 341.29
  Q 573.27 341.16 573.66 340.86
  Q 574.64 340.11 575.63 340.82
  Q 575.77 340.91 575.92 340.86
  Q 576.11 340.80 576.31 340.73
  Q 576.49 340.67 576.53 340.86
  L 577.22 343.79
  Q 577.35 344.31 577.42 343.78
  Q 577.59 342.67 578.54 343.12
  Q 578.82 343.25 578.74 342.95
  L 578.61 342.42
  Q 578.56 342.24 578.75 342.25
  Q 578.94 342.26 578.98 342.38
  Q 579.07 342.66 579.36 342.61
  L 586.66 341.18
  Q 586.76 341.16 586.75 341.06
  Q 586.75 340.89 586.75 340.73
  Q 586.74 340.44 586.91 340.67
  L 587.29 341.19
  Q 587.62 341.64 587.62 341.08
  L 587.63 340.50
  Q 587.63 340.07 587.91 340.39
  Q 588.07 340.57 588.08 340.83
  Q 588.09 341.04 588.30 340.99
  Q 588.59 340.93 588.49 340.50
  Q 588.04 338.45 589.07 340.17
  Q 589.15 340.29 589.25 340.37
  Q 589.38 340.46 589.45 340.32
  L 589.90 339.48
  Q 589.94 339.41 590.00 339.47
  Q 590.07 339.56 590.11 339.70
  Q 590.18 339.92 590.34 339.75
  L 594.68 335.28
  Q 595.08 334.86 595.65 334.75
  C 598.04 334.26 599.39 333.69 601.06 331.64
  Q 604.64 327.24 610.06 325.59
  Q 610.57 325.43 611.01 325.14
  L 615.49 322.10
  Q 615.94 321.79 616.48 321.88
  L 619.49 322.37
  Q 619.97 322.45 620.09 322.93
  Q 621.87 330.02 619.96 337.13
  Q 619.82 337.66 619.33 337.90
  Q 614.29 340.47 611.94 345.53
  C 611.34 346.82 611.19 348.39 610.35 349.83
  Q 610.09 350.27 610.35 350.71
  L 611.16 352.10
  Q 611.45 352.60 612.03 352.65
  Q 619.78 353.34 626.96 356.36
  Q 627.44 356.57 627.88 356.27
  C 631.16 353.97 634.87 353.10 636.68 348.95
  Q 637.85 346.28 641.84 343.63
  Q 642.21 343.38 642.65 343.46
  Q 643.50 343.59 643.92 342.90
  Q 644.24 342.39 643.69 342.15
  C 640.37 340.68 637.88 338.04 640.60 334.40
  Q 640.92 333.97 641.44 333.88
  C 644.91 333.28 648.29 332.30 651.72 331.71
  Q 654.84 331.16 655.56 327.74
  Q 655.67 327.26 656.07 326.97
  Q 660.38 323.91 662.77 319.28
  C 664.57 315.76 663.30 312.81 667.74 310.12
  Q 668.17 309.86 668.65 309.98
  L 670.83 310.53
  Q 671.45 310.68 671.65 310.08
  L 672.23 308.37
  Q 672.40 307.87 672.34 307.35
  Q 672.19 305.98 672.93 304.75
  Q 673.18 304.33 673.11 303.84
  C 672.37 298.68 675.65 298.57 676.61 294.92
  Q 676.74 294.45 677.11 294.15
  C 679.20 292.43 681.91 292.81 681.97 296.00
  Q 682.20 309.24 682.22 313.65
  Q 682.22 314.18 681.93 314.62
  C 678.76 319.38 680.37 322.69 679.40 327.50
  Q 677.72 335.82 673.97 343.38
  Q 673.75 343.82 673.33 344.07
  C 671.08 345.37 670.33 347.56 668.80 349.11
  Q 665.06 352.90 662.88 357.83
  Q 662.67 358.29 662.21 358.50
  Q 657.18 360.84 654.81 364.55
  C 652.67 367.91 653.69 379.98 654.01 383.62
  C 654.25 386.22 655.91 388.11 656.81 390.60
  C 658.53 395.41 662.89 397.75 664.09 402.47
  C 665.27 407.08 666.54 410.45 668.09 414.47
  C 669.47 418.03 671.98 422.14 673.37 426.31
  C 675.37 432.24 676.30 434.81 677.97 439.07
  C 680.17 444.66 679.85 449.03 685.67 453.02
  Q 686.10 453.31 686.14 453.83
  Q 686.39 457.23 687.94 459.27
  Q 693.67 466.76 695.91 474.85
  C 696.47 476.87 695.81 479.30 696.79 481.49
  Q 697.02 481.99 697.56 481.99
  C 699.53 481.98 700.72 482.70 701.21 484.72
  C 702.08 488.27 703.37 491.66 704.37 495.17
  Q 705.23 498.18 708.07 499.90
  Q 708.51 500.16 708.65 500.65
  Q 710.32 506.61 712.89 512.20
  Q 713.63 513.81 715.18 515.42
  C 718.16 518.52 717.86 522.24 721.09 525.35
  Q 721.45 525.71 721.53 526.21
  C 722.32 531.58 727.94 533.59 729.54 539.55
  Q 729.67 540.03 729.99 540.40
  C 732.46 543.26 733.30 547.06 735.74 551.07
  Q 736.96 553.06 738.05 556.25
  C 739.26 559.81 741.56 562.62 742.62 566.12
  C 743.58 569.27 744.28 572.32 746.74 574.67
  C 748.34 576.19 749.96 577.21 751.25 579.17
  Q 754.21 583.69 759.46 584.11
  Q 766.40 584.68 771.31 588.27
  Q 771.70 588.56 772.18 588.63
  C 776.80 589.35 777.49 592.99 780.32 595.47
  Q 780.69 595.80 780.86 596.26
  C 781.36 597.62 783.22 600.05 782.73 601.24
  C 780.60 606.43 781.73 610.45 781.46 615.14
  Q 781.43 615.66 780.98 615.93
  Q 775.02 619.48 768.24 619.82
  C 761.83 620.14 758.28 622.37 752.21 618.34
  C 747.82 615.43 743.02 612.43 737.73 611.57
  Q 737.24 611.49 736.81 611.71
  C 734.15 613.07 730.51 615.20 727.59 613.92
  C 724.64 612.64 724.17 609.12 722.62 608.39
  Q 722.19 608.19 722.03 607.75
  Q 719.62 601.01 719.45 599.05
  Q 719.16 595.72 717.98 594.01
  Q 717.70 593.61 717.76 593.13
  Q 718.10 590.43 716.27 588.33
  Q 715.93 587.94 715.84 587.43
  C 715.19 583.30 714.45 575.17 716.25 571.23
  C 717.27 569.00 718.84 567.97 716.78 565.37
  A 0.71 0.71 0.0 0 0 715.51 565.81
  L 715.49 569.29
  Q 715.49 569.83 714.99 570.02
  C 711.59 571.34 710.25 575.42 706.24 574.78
  Q 705.69 574.69 705.58 574.15
  C 703.98 566.43 701.24 559.86 694.70 555.33
  Q 694.30 555.05 694.26 554.56
  Q 694.19 553.78 693.77 553.45
  Q 687.90 548.78 683.94 542.47
  Q 682.04 539.44 680.04 537.47
  Q 673.74 531.28 667.97 524.61
  Z"
/>
<path fill="#1b1916" d="
  M 667.00 374.51
  Q 667.34 375.52 668.44 375.72
  Q 668.99 375.82 668.98 376.38
  C 668.92 381.35 668.18 389.91 671.11 394.08
  Q 673.36 397.27 674.39 401.10
  Q 674.51 401.57 674.91 401.84
  Q 675.35 402.15 675.14 402.78
  Q 676.35 407.10 677.68 411.40
  Q 678.12 412.82 679.82 415.89
  C 681.27 418.50 681.46 421.46 682.57 423.98
  Q 683.64 426.41 684.45 428.94
  C 685.15 431.15 686.88 432.70 687.89 434.83
  Q 688.10 435.26 688.00 435.72
  Q 687.67 437.18 688.94 438.01
  Q 689.43 438.34 689.29 438.91
  Q 688.69 441.38 690.61 442.71
  Q 691.04 443.01 691.06 443.54
  Q 691.14 445.57 692.18 446.54
  Q 694.48 448.67 694.96 451.00
  Q 693.05 451.38 692.36 449.61
  Q 692.22 449.25 691.90 449.05
  Q 691.40 448.72 691.39 447.98
  Q 691.38 447.47 690.95 447.18
  C 687.98 445.20 689.03 443.08 687.12 440.70
  Q 686.78 440.27 686.72 439.73
  Q 686.48 437.12 685.07 434.95
  Q 684.59 434.21 684.83 435.06
  L 686.50 441.00
  L 685.63 439.75
  Q 685.39 439.39 685.28 438.98
  Q 684.82 437.24 683.65 435.78
  Q 683.37 435.45 683.24 435.04
  L 681.56 429.70
  Q 681.50 429.50 681.29 429.50
  Q 681.13 429.50 680.98 429.50
  Q 680.81 429.50 680.76 429.34
  Q 680.24 427.66 679.50 426.07
  C 678.51 423.92 678.36 421.52 677.17 419.36
  C 675.57 416.45 673.98 412.11 672.93 408.93
  Q 670.64 401.99 668.05 395.15
  Q 666.64 391.43 666.47 388.11
  Q 666.14 381.29 667.00 374.51
  Z"
/>
<path fill="#1b1916" d="
  M 686.50 441.00
  L 690.78 449.71
  Q 690.82 449.79 690.73 449.79
  L 690.36 449.79
  Q 689.82 449.80 690.22 450.16
  Q 690.75 450.63 690.95 451.24
  Q 691.49 452.89 690.64 451.30
  Q 687.98 446.37 686.50 441.00
  Z"
/>
<path fill="#1b1916" d="
  M 703.29 470.50
  Q 707.56 476.55 709.94 483.55
  C 711.47 488.04 714.43 491.75 716.49 496.54
  Q 719.40 503.30 724.80 510.93
  Q 725.09 511.34 725.07 511.84
  Q 725.01 513.01 725.98 513.41
  Q 726.49 513.62 726.68 514.14
  Q 729.44 521.80 731.81 525.44
  Q 734.39 529.39 735.25 531.96
  Q 732.03 530.52 731.28 528.22
  Q 729.11 521.60 724.97 518.13
  Q 724.59 517.81 724.44 517.35
  C 723.53 514.61 721.58 513.13 720.56 510.74
  C 719.07 507.27 717.49 503.86 714.80 500.93
  Q 714.42 500.52 714.49 499.81
  Q 714.55 499.30 714.23 498.91
  Q 711.87 496.00 710.75 492.45
  C 709.80 489.43 711.60 487.37 708.87 484.29
  Q 708.52 483.88 708.50 483.35
  Q 708.46 481.90 707.40 480.82
  Q 707.08 480.50 706.65 480.36
  Q 705.20 479.88 704.99 478.24
  Q 704.93 477.77 704.54 477.50
  C 702.59 476.20 703.49 472.63 703.29 470.50
  Z"
/>
<path fill="#1b1916" d="
  M 460.46 502.50
  Q 459.40 499.94 457.21 498.25
  Q 457.71 497.91 457.94 497.48
  Q 458.18 497.02 457.86 496.61
  L 456.21 494.50
  Q 455.87 492.37 454.10 491.86
  Q 454.07 491.85 453.66 491.31
  Q 453.45 491.04 453.56 490.79
  Q 453.78 490.31 454.22 490.60
  C 458.10 493.19 461.71 497.48 460.46 502.50
  Z"
/>
<path fill="#1b1916" d="
  M 451.79 491.50
  L 456.21 494.50
  L 457.86 496.61
  Q 458.18 497.02 457.94 497.48
  Q 457.71 497.91 457.21 498.25
  L 456.39 496.09
  Q 456.22 495.65 455.87 495.32
  L 451.79 491.50
  Z"
/>
<path fill="#1b1916" d="
  M 685.50 556.29
  L 672.96 539.75
  Q 673.44 539.17 674.18 539.26
  Q 674.73 539.33 675.02 539.81
  Q 675.98 541.37 677.76 541.55
  Q 678.31 541.61 678.74 541.97
  C 681.40 544.21 683.28 548.22 685.94 552.02
  Q 687.43 554.14 685.50 556.29
  Z"
/>
<path fill="#1b1916" d="
  M 743.75 627.21
  C 734.81 627.97 724.57 639.03 719.75 623.79
  Q 723.34 624.20 725.35 627.25
  Q 725.61 627.65 726.10 627.68
  L 731.06 627.91
  Q 731.57 627.94 732.05 627.77
  L 742.29 624.13
  Q 742.91 623.90 743.33 624.41
  Q 744.39 625.69 743.75 627.21
  Z"
/>
</svg>
